<?xml version="1.0" encoding="UTF-8" standalone="no"?>
<!-- Created with Inkscape (http://www.inkscape.org/) -->

<svg
   width="512"
   height="512"
   viewBox="0 0 512 512"
   version="1.1"
   id="svg1"
   xmlns="http://www.w3.org/2000/svg"
   xmlns:svg="http://www.w3.org/2000/svg">
  <defs
     id="defs1" />
  <g
     id="layer1">
    <rect
       style="fill:#999999"
       id="rect1"
       width="64"
       height="64"
       x="0"
       y="0" />
    <rect
       style="fill:#cccccc;stroke-width:1.24999"
       id="rect2"
       width="40"
       height="40"
       x="12"
       y="12" />
    <rect
       style="fill:#999999"
       id="rect1-4"
       width="64"
       height="64"
       x="64"
       y="0" />
    <rect
       style="fill:#cccccc;stroke-width:1.24999"
       id="rect2-3"
       width="40"
       height="40"
       x="76"
       y="12" />
    <rect
       style="fill:#999999"
       id="rect1-41"
       width="64"
       height="64"
       x="128"
       y="0" />
    <rect
       style="fill:#cccccc;stroke-width:1.24999"
       id="rect2-8"
       width="40"
       height="40"
       x="140"
       y="12" />
    <rect
       style="fill:#999999"
       id="rect1-4-8"
       width="64"
       height="64"
       x="192"
       y="0" />
    <rect
       style="fill:#cccccc;stroke-width:1.24999"
       id="rect2-3-3"
       width="40"
       height="40"
       x="204"
       y="12" />
    <rect
       style="fill:#999999"
       id="rect1-8"
       width="64"
       height="64"
       x="256"
       y="0" />
    <rect
       style="fill:#cccccc;stroke-width:1.24999"
       id="rect2-7"
       width="40"
       height="40"
       x="268"
       y="12" />
    <rect
       style="fill:#999999"
       id="rect1-4-87"
       width="64"
       height="64"
       x="320"
       y="0" />
    <rect
       style="fill:#cccccc;stroke-width:1.24999"
       id="rect2-3-7"
       width="40"
       height="40"
       x="332"
       y="12" />
    <rect
       style="fill:#999999"
       id="rect1-41-4"
       width="64"
       height="64"
       x="384"
       y="0" />
    <rect
       style="fill:#cccccc;stroke-width:1.24999"
       id="rect2-8-4"
       width="40"
       height="40"
       x="396"
       y="12" />
    <rect
       style="fill:#999999"
       id="rect1-4-8-9"
       width="64"
       height="64"
       x="448"
       y="0" />
    <rect
       style="fill:#cccccc;stroke-width:1.24999"
       id="rect2-3-3-1"
       width="40"
       height="40"
       x="460"
       y="12" />
    <rect
       style="fill:#999999"
       id="rect1-85"
       width="64"
       height="64"
       x="0"
       y="64" />
    <rect
       style="fill:#cccccc;stroke-width:1.24999"
       id="rect2-83"
       width="40"
       height="40"
       x="12"
       y="76" />
    <rect
       style="fill:#999999"
       id="rect1-4-0"
       width="64"
       height="64"
       x="64"
       y="64" />
    <rect
       style="fill:#cccccc;stroke-width:1.24999"
       id="rect2-3-6"
       width="40"
       height="40"
       x="76"
       y="76" />
    <rect
       style="fill:#999999"
       id="rect1-41-2"
       width="64"
       height="64"
       x="128"
       y="64" />
    <rect
       style="fill:#cccccc;stroke-width:1.24999"
       id="rect2-8-2"
       width="40"
       height="40"
       x="140"
       y="76" />
    <rect
       style="fill:#999999"
       id="rect1-4-8-5"
       width="64"
       height="64"
       x="192"
       y="64" />
    <rect
       style="fill:#cccccc;stroke-width:1.24999"
       id="rect2-3-3-2"
       width="40"
       height="40"
       x="204"
       y="76" />
    <rect
       style="fill:#999999"
       id="rect1-8-2"
       width="64"
       height="64"
       x="256"
       y="64" />
    <rect
       style="fill:#cccccc;stroke-width:1.24999"
       id="rect2-7-7"
       width="40"
       height="40"
       x="268"
       y="76" />
    <rect
       style="fill:#999999"
       id="rect1-4-87-1"
       width="64"
       height="64"
       x="320"
       y="64" />
    <rect
       style="fill:#cccccc;stroke-width:1.24999"
       id="rect2-3-7-5"
       width="40"
       height="40"
       x="332"
       y="76" />
    <rect
       style="fill:#999999"
       id="rect1-41-4-2"
       width="64"
       height="64"
       x="384"
       y="64" />
    <rect
       style="fill:#cccccc;stroke-width:1.24999"
       id="rect2-8-4-1"
       width="40"
       height="40"
       x="396"
       y="76" />
    <rect
       style="fill:#999999"
       id="rect1-4-8-9-1"
       width="64"
       height="64"
       x="448"
       y="64" />
    <rect
       style="fill:#cccccc;stroke-width:1.24999"
       id="rect2-3-3-1-0"
       width="40"
       height="40"
       x="460"
       y="76" />
    <rect
       style="fill:#999999"
       id="rect1-859"
       width="64"
       height="64"
       x="0"
       y="128" />
    <rect
       style="fill:#cccccc;stroke-width:1.24999"
       id="rect2-4"
       width="40"
       height="40"
       x="12"
       y="140" />
    <rect
       style="fill:#999999"
       id="rect1-4-3"
       width="64"
       height="64"
       x="64"
       y="128" />
    <rect
       style="fill:#cccccc;stroke-width:1.24999"
       id="rect2-3-9"
       width="40"
       height="40"
       x="76"
       y="140" />
    <rect
       style="fill:#999999"
       id="rect1-41-0"
       width="64"
       height="64"
       x="128"
       y="128" />
    <rect
       style="fill:#cccccc;stroke-width:1.24999"
       id="rect2-8-5"
       width="40"
       height="40"
       x="140"
       y="140" />
    <rect
       style="fill:#999999"
       id="rect1-4-8-6"
       width="64"
       height="64"
       x="192"
       y="128" />
    <rect
       style="fill:#cccccc;stroke-width:1.24999"
       id="rect2-3-3-3"
       width="40"
       height="40"
       x="204"
       y="140" />
    <rect
       style="fill:#999999"
       id="rect1-8-6"
       width="64"
       height="64"
       x="256"
       y="128" />
    <rect
       style="fill:#cccccc;stroke-width:1.24999"
       id="rect2-7-3"
       width="40"
       height="40"
       x="268"
       y="140" />
    <rect
       style="fill:#999999"
       id="rect1-4-87-0"
       width="64"
       height="64"
       x="320"
       y="128" />
    <rect
       style="fill:#cccccc;stroke-width:1.24999"
       id="rect2-3-7-8"
       width="40"
       height="40"
       x="332"
       y="140" />
    <rect
       style="fill:#999999"
       id="rect1-41-4-4"
       width="64"
       height="64"
       x="384"
       y="128" />
    <rect
       style="fill:#cccccc;stroke-width:1.24999"
       id="rect2-8-4-0"
       width="40"
       height="40"
       x="396"
       y="140" />
    <rect
       style="fill:#999999"
       id="rect1-4-8-9-4"
       width="64"
       height="64"
       x="448"
       y="128" />
    <rect
       style="fill:#cccccc;stroke-width:1.24999"
       id="rect2-3-3-1-6"
       width="40"
       height="40"
       x="460"
       y="140" />
    <rect
       style="fill:#999999"
       id="rect1-85-4"
       width="64"
       height="64"
       x="0"
       y="192" />
    <rect
       style="fill:#cccccc;stroke-width:1.24999"
       id="rect2-83-6"
       width="40"
       height="40"
       x="12"
       y="204" />
    <rect
       style="fill:#999999"
       id="rect1-4-0-4"
       width="64"
       height="64"
       x="64"
       y="192" />
    <rect
       style="fill:#cccccc;stroke-width:1.24999"
       id="rect2-3-6-3"
       width="40"
       height="40"
       x="76"
       y="204" />
    <rect
       style="fill:#999999"
       id="rect1-41-2-8"
       width="64"
       height="64"
       x="128"
       y="192" />
    <rect
       style="fill:#cccccc;stroke-width:1.24999"
       id="rect2-8-2-4"
       width="40"
       height="40"
       x="140"
       y="204" />
    <rect
       style="fill:#999999"
       id="rect1-4-8-5-0"
       width="64"
       height="64"
       x="192"
       y="192" />
    <rect
       style="fill:#cccccc;stroke-width:1.24999"
       id="rect2-3-3-2-0"
       width="40"
       height="40"
       x="204"
       y="204" />
    <rect
       style="fill:#999999"
       id="rect1-8-2-9"
       width="64"
       height="64"
       x="256"
       y="192" />
    <rect
       style="fill:#cccccc;stroke-width:1.24999"
       id="rect2-7-7-3"
       width="40"
       height="40"
       x="268"
       y="204" />
    <rect
       style="fill:#999999"
       id="rect1-4-87-1-7"
       width="64"
       height="64"
       x="320"
       y="192" />
    <rect
       style="fill:#cccccc;stroke-width:1.24999"
       id="rect2-3-7-5-5"
       width="40"
       height="40"
       x="332"
       y="204" />
    <rect
       style="fill:#999999"
       id="rect1-41-4-2-7"
       width="64"
       height="64"
       x="384"
       y="192" />
    <rect
       style="fill:#cccccc;stroke-width:1.24999"
       id="rect2-8-4-1-2"
       width="40"
       height="40"
       x="396"
       y="204" />
    <rect
       style="fill:#999999"
       id="rect1-4-8-9-1-9"
       width="64"
       height="64"
       x="448"
       y="192" />
    <rect
       style="fill:#cccccc;stroke-width:1.24999"
       id="rect2-3-3-1-0-7"
       width="40"
       height="40"
       x="460"
       y="204" />
    <rect
       style="fill:#999999"
       id="rect1-5"
       width="64"
       height="64"
       x="0"
       y="256" />
    <rect
       style="fill:#cccccc;stroke-width:1.24999"
       id="rect2-86"
       width="40"
       height="40"
       x="12"
       y="268" />
    <rect
       style="fill:#999999"
       id="rect1-4-2"
       width="64"
       height="64"
       x="64"
       y="256" />
    <rect
       style="fill:#cccccc;stroke-width:1.24999"
       id="rect2-3-5"
       width="40"
       height="40"
       x="76"
       y="268" />
    <rect
       style="fill:#999999"
       id="rect1-41-1"
       width="64"
       height="64"
       x="128"
       y="256" />
    <rect
       style="fill:#cccccc;stroke-width:1.24999"
       id="rect2-8-3"
       width="40"
       height="40"
       x="140"
       y="268" />
    <rect
       style="fill:#999999"
       id="rect1-4-8-97"
       width="64"
       height="64"
       x="192"
       y="256" />
    <rect
       style="fill:#cccccc;stroke-width:1.24999"
       id="rect2-3-3-37"
       width="40"
       height="40"
       x="204"
       y="268" />
    <rect
       style="fill:#999999"
       id="rect1-8-5"
       width="64"
       height="64"
       x="256"
       y="256" />
    <rect
       style="fill:#cccccc;stroke-width:1.24999"
       id="rect2-7-0"
       width="40"
       height="40"
       x="268"
       y="268" />
    <rect
       style="fill:#999999"
       id="rect1-4-87-2"
       width="64"
       height="64"
       x="320"
       y="256" />
    <rect
       style="fill:#cccccc;stroke-width:1.24999"
       id="rect2-3-7-1"
       width="40"
       height="40"
       x="332"
       y="268" />
    <rect
       style="fill:#999999"
       id="rect1-41-4-8"
       width="64"
       height="64"
       x="384"
       y="256" />
    <rect
       style="fill:#cccccc;stroke-width:1.24999"
       id="rect2-8-4-7"
       width="40"
       height="40"
       x="396"
       y="268" />
    <rect
       style="fill:#999999"
       id="rect1-4-8-9-15"
       width="64"
       height="64"
       x="448"
       y="256" />
    <rect
       style="fill:#cccccc;stroke-width:1.24999"
       id="rect2-3-3-1-5"
       width="40"
       height="40"
       x="460"
       y="268" />
    <rect
       style="fill:#999999"
       id="rect1-85-8"
       width="64"
       height="64"
       x="0"
       y="320" />
    <rect
       style="fill:#cccccc;stroke-width:1.24999"
       id="rect2-83-5"
       width="40"
       height="40"
       x="12"
       y="332" />
    <rect
       style="fill:#999999"
       id="rect1-4-0-6"
       width="64"
       height="64"
       x="64"
       y="320" />
    <rect
       style="fill:#cccccc;stroke-width:1.24999"
       id="rect2-3-6-7"
       width="40"
       height="40"
       x="76"
       y="332" />
    <rect
       style="fill:#999999"
       id="rect1-41-2-9"
       width="64"
       height="64"
       x="128"
       y="320" />
    <rect
       style="fill:#cccccc;stroke-width:1.24999"
       id="rect2-8-2-41"
       width="40"
       height="40"
       x="140"
       y="332" />
    <rect
       style="fill:#999999"
       id="rect1-4-8-5-6"
       width="64"
       height="64"
       x="192"
       y="320" />
    <rect
       style="fill:#cccccc;stroke-width:1.24999"
       id="rect2-3-3-2-1"
       width="40"
       height="40"
       x="204"
       y="332" />
    <rect
       style="fill:#999999"
       id="rect1-8-2-2"
       width="64"
       height="64"
       x="256"
       y="320" />
    <rect
       style="fill:#cccccc;stroke-width:1.24999"
       id="rect2-7-7-0"
       width="40"
       height="40"
       x="268"
       y="332" />
    <rect
       style="fill:#999999"
       id="rect1-4-87-1-4"
       width="64"
       height="64"
       x="320"
       y="320" />
    <rect
       style="fill:#cccccc;stroke-width:1.24999"
       id="rect2-3-7-5-4"
       width="40"
       height="40"
       x="332"
       y="332" />
    <rect
       style="fill:#999999"
       id="rect1-41-4-2-5"
       width="64"
       height="64"
       x="384"
       y="320" />
    <rect
       style="fill:#cccccc;stroke-width:1.24999"
       id="rect2-8-4-1-9"
       width="40"
       height="40"
       x="396"
       y="332" />
    <rect
       style="fill:#999999"
       id="rect1-4-8-9-1-7"
       width="64"
       height="64"
       x="448"
       y="320" />
    <rect
       style="fill:#cccccc;stroke-width:1.24999"
       id="rect2-3-3-1-0-5"
       width="40"
       height="40"
       x="460"
       y="332" />
    <rect
       style="fill:#999999"
       id="rect1-859-3"
       width="64"
       height="64"
       x="0"
       y="384" />
    <rect
       style="fill:#cccccc;stroke-width:1.24999"
       id="rect2-4-9"
       width="40"
       height="40"
       x="12"
       y="396" />
    <rect
       style="fill:#999999"
       id="rect1-4-3-0"
       width="64"
       height="64"
       x="64"
       y="384" />
    <rect
       style="fill:#cccccc;stroke-width:1.24999"
       id="rect2-3-9-5"
       width="40"
       height="40"
       x="76"
       y="396" />
    <rect
       style="fill:#999999"
       id="rect1-41-0-5"
       width="64"
       height="64"
       x="128"
       y="384" />
    <rect
       style="fill:#cccccc;stroke-width:1.24999"
       id="rect2-8-5-6"
       width="40"
       height="40"
       x="140"
       y="396" />
    <rect
       style="fill:#999999"
       id="rect1-4-8-6-3"
       width="64"
       height="64"
       x="192"
       y="384" />
    <rect
       style="fill:#cccccc;stroke-width:1.24999"
       id="rect2-3-3-3-2"
       width="40"
       height="40"
       x="204"
       y="396" />
    <rect
       style="fill:#999999"
       id="rect1-8-6-6"
       width="64"
       height="64"
       x="256"
       y="384" />
    <rect
       style="fill:#cccccc;stroke-width:1.24999"
       id="rect2-7-3-8"
       width="40"
       height="40"
       x="268"
       y="396" />
    <rect
       style="fill:#999999"
       id="rect1-4-87-0-9"
       width="64"
       height="64"
       x="320"
       y="384" />
    <rect
       style="fill:#cccccc;stroke-width:1.24999"
       id="rect2-3-7-8-1"
       width="40"
       height="40"
       x="332"
       y="396" />
    <rect
       style="fill:#999999"
       id="rect1-41-4-4-4"
       width="64"
       height="64"
       x="384"
       y="384" />
    <rect
       style="fill:#cccccc;stroke-width:1.24999"
       id="rect2-8-4-0-8"
       width="40"
       height="40"
       x="396"
       y="396" />
    <rect
       style="fill:#999999"
       id="rect1-4-8-9-4-8"
       width="64"
       height="64"
       x="448"
       y="384" />
    <rect
       style="fill:#cccccc;stroke-width:1.24999"
       id="rect2-3-3-1-6-7"
       width="40"
       height="40"
       x="460"
       y="396" />
    <rect
       style="fill:#999999"
       id="rect1-85-4-1"
       width="64"
       height="64"
       x="0"
       y="448" />
    <rect
       style="fill:#cccccc;stroke-width:1.24999"
       id="rect2-83-6-9"
       width="40"
       height="40"
       x="12"
       y="460" />
    <rect
       style="fill:#999999"
       id="rect1-4-0-4-3"
       width="64"
       height="64"
       x="64"
       y="448" />
    <rect
       style="fill:#cccccc;stroke-width:1.24999"
       id="rect2-3-6-3-1"
       width="40"
       height="40"
       x="76"
       y="460" />
    <rect
       style="fill:#999999"
       id="rect1-41-2-8-1"
       width="64"
       height="64"
       x="128"
       y="448" />
    <rect
       style="fill:#cccccc;stroke-width:1.24999"
       id="rect2-8-2-4-4"
       width="40"
       height="40"
       x="140"
       y="460" />
    <rect
       style="fill:#999999"
       id="rect1-4-8-5-0-9"
       width="64"
       height="64"
       x="192"
       y="448" />
    <rect
       style="fill:#cccccc;stroke-width:1.24999"
       id="rect2-3-3-2-0-5"
       width="40"
       height="40"
       x="204"
       y="460" />
    <rect
       style="fill:#999999"
       id="rect1-8-2-9-9"
       width="64"
       height="64"
       x="256"
       y="448" />
    <rect
       style="fill:#cccccc;stroke-width:1.24999"
       id="rect2-7-7-3-0"
       width="40"
       height="40"
       x="268"
       y="460" />
    <rect
       style="fill:#999999"
       id="rect1-4-87-1-7-9"
       width="64"
       height="64"
       x="320"
       y="448" />
    <rect
       style="fill:#cccccc;stroke-width:1.24999"
       id="rect2-3-7-5-5-3"
       width="40"
       height="40"
       x="332"
       y="460" />
    <rect
       style="fill:#999999"
       id="rect1-41-4-2-7-4"
       width="64"
       height="64"
       x="384"
       y="448" />
    <rect
       style="fill:#cccccc;stroke-width:1.24999"
       id="rect2-8-4-1-2-0"
       width="40"
       height="40"
       x="396"
       y="460" />
    <rect
       style="fill:#000000"
       id="rect3"
       width="64"
       height="64"
       x="448"
       y="448" />
  </g>
</svg>
