<?xml version="1.0" encoding="UTF-8" standalone="no"?>
<!-- Created with Inkscape (http://www.inkscape.org/) -->

<svg
   width="768"
   height="768"
   viewBox="0 0 203.2 203.2"
   version="1.1"
   id="svg1"
   sodipodi:docname="sprite_stage_line.svg"
   inkscape:version="1.3.2 (091e20e, 2023-11-25, custom)"
   xmlns:inkscape="http://www.inkscape.org/namespaces/inkscape"
   xmlns:sodipodi="http://sodipodi.sourceforge.net/DTD/sodipodi-0.dtd"
   xmlns="http://www.w3.org/2000/svg"
   xmlns:svg="http://www.w3.org/2000/svg">
  <sodipodi:namedview
     id="namedview1"
     pagecolor="#ffffff"
     bordercolor="#000000"
     borderopacity="0.25"
     inkscape:showpageshadow="2"
     inkscape:pageopacity="0.0"
     inkscape:pagecheckerboard="true"
     inkscape:deskcolor="#d1d1d1"
     inkscape:document-units="px"
     inkscape:zoom="0.52738496"
     inkscape:cx="396.29496"
     inkscape:cy="561.25984"
     inkscape:window-width="1440"
     inkscape:window-height="830"
     inkscape:window-x="-6"
     inkscape:window-y="-6"
     inkscape:window-maximized="1"
     inkscape:current-layer="layer1" />
  <defs
     id="defs1" />
  <g
     inkscape:label="Layer 1"
     inkscape:groupmode="layer"
     id="layer1">
    <path
       style="fill:#ffffff;stroke-width:0.264583"
       id="path1"
       d="m 20.27429,14.922122 c -0.3876,11.66043 -1.170699,23.303668 -1.758635,34.955595 -0.548888,18.520296 -1.279177,37.03719 -1.625267,55.562893 -0.08967,6.20954 -0.190081,12.41802 0.16222,18.62036 1.097295,7.29404 1.576553,14.6532 2.119927,22.00231 0.145108,4.69801 1.789649,9.03957 3.695221,13.26844 0.283042,0.54438 0.44596,1.17062 0.849126,1.63313 0.47084,0.54015 1.071041,0.97836 1.70999,1.3027 1.858429,0.94337 3.723583,1.95204 5.740004,2.47905 1.713379,0.4478 10.391574,-0.20788 10.945067,-0.24505 2.540669,-0.17064 5.077396,-0.39563 7.616094,-0.59344 6.703007,-0.57955 6.928702,-0.53795 13.273982,-1.30389 2.34624,-0.28321 5.866424,-0.33315 7.930216,-2.03001 2.133984,-1.75457 1.773012,-3.95167 2.027169,-6.40403 -0.105601,-1.95709 -0.192281,-3.91529 -0.316797,-5.87127 -0.625239,-9.82156 -0.676417,-7.77301 -1.1196,-18.33997 -0.391157,-9.32648 -0.4744,-18.65572 -0.495631,-27.98857 0.05574,-1.59786 0.942287,-3.395181 0.167212,-4.79358 -0.517237,-0.933204 -2.63279,-1.517846 -3.147309,-0.583142 -0.91985,1.671056 0.253447,3.807142 0.323326,5.713362 0.310346,8.46565 0.251759,16.94099 0.209296,25.41001 -0.009,0.66203 -0.113112,9.4361 -0.183232,11.30887 -0.0065,0.17271 -0.21178,0.63502 -0.09222,0.51022 1.194139,-1.24649 2.959246,-2.25529 3.370144,-3.93186 0.771739,-3.14887 -0.02709,-6.48411 -0.02278,-9.72617 0.0056,-4.21044 0.03501,-8.42081 0.05251,-12.63121 0.138467,-12.00214 0.41253,-24.005223 0.338666,-36.009059 -0.02564,-4.167142 -0.04702,-8.093498 -0.44142,-12.211319 -0.08134,-0.849199 -0.254553,-1.687076 -0.381831,-2.530613 -0.730369,-2.132174 -0.432683,-2.055175 -4.071141,-3.219093 -0.286006,-0.09149 -0.338383,0.511212 -0.407437,0.803447 -0.263099,1.113454 0.114544,2.4028 0.359019,3.478012 0.136884,0.350226 0.233783,0.718849 0.410657,1.050678 0.505981,0.949273 1.39532,1.902704 2.046848,2.703447 0.728843,0.895768 1.458304,1.791105 2.176759,2.695226 2.67403,3.365071 2.475127,3.155164 5.09325,6.663192 2.239754,3.209279 5.236475,6.607461 6.170486,10.529374 0.678336,2.848338 1.059561,5.769655 1.292645,8.688364 0.675241,8.455444 0.207563,15.595804 -0.05539,24.079884 -0.160221,6.78466 -1.010372,13.52825 -1.326692,20.30296 -0.08463,1.8127 -0.171794,3.6335 -0.04625,5.44382 0.05622,0.8107 -0.03178,1.8402 0.58784,2.36599 4.209389,3.57193 4.005263,2.36044 5.883468,-0.32613 3.431114,-7.21403 6.625778,-14.53319 10.203794,-21.67842 0.897296,-1.79189 1.698516,-3.63991 2.747166,-5.34765 0.77192,-1.25709 1.79534,-2.34122 2.69302,-3.51184 0.9021,-0.16043 1.80813,-0.66238 2.70632,-0.48131 0.34689,0.0699 -0.63138,0.58129 -0.52947,0.92016 0.53778,1.78818 1.70732,3.33316 2.33727,5.09098 2.33946,6.52802 3.12072,13.45002 3.98546,20.27953 0.18313,1.84631 0.3482,3.69449 0.54939,5.53892 0.15132,1.38727 0.17452,2.80051 0.50808,4.15556 0.59347,2.41093 3.23675,3.37739 5.74991,2.83313 1.05506,-0.22849 1.33294,-1.70264 1.91398,-2.61245 0.75267,-1.17857 1.38723,-2.42853 2.08085,-3.6428 2.13211,-3.96785 3.83853,-8.14749 5.88712,-12.15579 0.60269,-1.17923 1.97146,-4.26716 3.61892,-4.84919 1.00345,-0.3545 2.12843,-0.009 3.19265,-0.014 1.467,0.33948 2.94137,0.64853 4.40099,1.01844 1.7916,0.45404 3.55018,1.03682 5.35096,1.45299 5.78594,1.33718 11.9222,2.28066 17.70086,0.22438 1.70209,-0.60567 3.17715,-1.72093 4.76573,-2.58139 1.089,-1.70248 2.44863,-3.25958 3.267,-5.10745 1.59486,-3.60114 2.39496,-8.88917 2.29265,-12.79669 -0.0916,-3.49817 -0.80842,-7.99754 -3.24509,-10.81315 -1.05762,-1.22211 -2.70312,-1.77246 -4.05468,-2.65869 -2.83762,-0.19188 -5.77334,-1.339837 -8.51285,-0.57564 -4.8442,1.35129 -11.70273,10.14563 -13.92307,13.4037 -4.24034,6.22218 -8.36109,14.33238 -9.53421,21.90276 -0.54273,3.50229 0.0943,7.08754 0.14144,10.63131 1.35192,3.02496 2.14369,6.36896 4.05576,9.07488 1.97167,2.79027 4.5871,5.1456 7.38168,7.11116 8.24375,5.79823 18.60155,9.42784 28.75669,7.93817 2.36582,-0.34704 4.56987,-1.40936 6.8548,-2.11404 1.64092,-1.19645 3.28183,-2.39291 4.92274,-3.58937 0,0 -2.48692,-1.57358 -2.48692,-1.57358 v 0 c -1.57174,1.204 -3.14348,2.40801 -4.71522,3.61201 -2.20819,0.7275 -4.32895,1.81438 -6.62456,2.18252 -11.32309,1.81581 -25.22855,-3.17826 -32.04245,-12.63195 -1.94456,-2.69792 -2.80271,-6.03201 -4.20406,-9.04801 -0.11724,-3.55598 -0.85066,-7.14519 -0.3517,-10.66794 1.52769,-10.78579 8.89531,-22.89889 17.02745,-30.00988 3.09999,-2.71073 7.24281,-4.01499 10.32495,-6.783608 1.40074,0.847478 3.09103,1.340118 4.20221,2.542438 2.54339,2.75196 3.36037,7.23141 3.48879,10.7492 0.14314,3.92119 -0.64676,9.03147 -2.29881,12.62669 -0.82357,1.79225 -2.18823,3.28228 -3.28235,4.92342 -1.55367,0.84742 -2.99432,1.94717 -4.66103,2.54226 -5.76721,2.05915 -11.87841,1.0389 -17.63318,-0.34853 -1.85037,-0.44611 -3.65422,-1.06887 -5.49625,-1.54827 -1.53717,-0.40005 -3.09261,-0.7263 -4.63891,-1.08945 -1.14354,0.0564 -2.36842,-0.25817 -3.43061,0.16916 -1.54325,0.62087 -2.92167,3.985 -3.44935,5.08882 -1.93646,4.05073 -3.64192,8.21793 -5.87447,12.12415 -0.73747,1.17112 -1.39904,2.39363 -2.21241,3.51338 -0.60233,0.82922 -1.92612,1.29582 -2.0221,2.31621 -0.0889,0.94517 1.26385,1.47397 1.58144,2.36861 0.24205,0.68186 -1.10741,-1.02015 -1.34533,-1.70346 -0.42234,-1.21301 -1.36901,-9.27417 -1.44637,-9.88068 -0.64933,-4.7751 -1.13921,-8.99336 -2.1339,-13.72714 -0.33073,-1.57394 -2.21319,-9.86331 -3.60592,-11.5952 -1.44476,-1.79662 -3.35616,-3.32609 -5.48304,-4.21576 -0.83493,-0.34925 -1.7207,0.56171 -2.58105,0.84257 -0.82569,1.23123 -1.75195,2.40068 -2.47708,3.6937 -0.98184,1.75076 -1.753513,3.61135 -2.631845,5.41627 -3.476066,7.14305 -6.819741,14.37622 -10.823908,21.2433 -0.505754,0.59002 -1.599901,0.99736 -1.517256,1.77007 0.09501,0.88831 1.203503,2.43182 1.907892,1.88231 0.720588,-0.56215 -0.926803,-1.61326 -1.103328,-2.50997 -0.368557,-1.87221 -0.481425,-3.7935 -0.513128,-5.70137 -0.06146,-3.69844 0.668269,-17.66602 0.80576,-20.57416 0.30875,-7.22541 0.832487,-16.513 0.666382,-23.806617 -0.06422,-2.820095 -0.0978,-5.664308 -0.589759,-8.441901 -0.682165,-3.85149 -3.948483,-7.508349 -6.119246,-10.59338 -2.273242,-3.087325 -4.556601,-6.171088 -6.891068,-9.212603 -0.35438,-0.461714 -1.574567,-1.898867 -1.951495,-2.543855 -0.184118,-0.315053 -0.296188,-0.667012 -0.44428,-1.000517 -0.251307,-0.974407 -0.374277,-1.251061 -0.427422,-2.266397 -0.01632,-0.311761 -0.0073,-0.626258 0.03141,-0.936035 0.01431,-0.1144 0.215916,-0.250169 0.125865,-0.322159 -0.885962,-0.708263 -1.772412,-1.507469 -2.851539,-1.856825 -0.414411,-0.134162 0.425495,0.760196 0.638244,1.140291 0.247103,0.889495 0.56243,1.762802 0.741307,2.668484 0.83556,4.230576 1.120138,8.288806 1.328521,12.627565 0.578665,12.048405 0.318661,24.119809 -0.007,36.170219 -0.171061,4.13098 -0.298863,8.26398 -0.51318,12.39295 -0.162634,3.1332 -1.043684,6.28363 -0.617593,9.39199 0.340719,2.48556 1.993527,4.60744 2.859397,6.96209 0.101639,0.2764 -0.502841,-0.39901 -0.552694,-0.68926 -0.452911,-2.637 -0.413091,-9.67233 -0.441621,-11.61701 -0.03922,-7.1158 -0.09353,-10.05995 0.02604,-17.25748 0.0439,-2.64236 0.09083,-5.2853 0.206981,-7.92546 0.07838,-1.78166 0.945861,-3.64685 0.376457,-5.336895 -0.42545,-1.262766 -2.06071,-3.484676 -3.046561,-2.588191 -1.248267,1.135113 0.226058,3.366823 0.339088,5.050236 0.290737,9.37771 0.524258,18.75643 0.773205,28.13532 0.0459,1.72946 0.426188,15.53058 0.467455,18.00756 0.03149,1.89029 0.019,3.78105 0.0285,5.67158 -0.281832,2.22404 -0.05474,4.41575 -1.920637,6.06944 -1.961531,1.73844 -5.151855,1.87329 -7.479572,2.21564 -6.055461,0.89061 -6.60999,0.85222 -13.032936,1.45825 -5.942629,0.38809 -8.921694,0.72166 -14.797272,0.585 -1.46956,-0.0342 -2.945347,-0.58399 -4.396158,-0.3475 -0.35573,0.058 0.781359,1.03192 0.422814,0.99517 -1.528151,-0.15663 -2.057355,-1.71156 -2.641048,-2.76373 -1.969324,-4.20675 -3.556047,-8.57272 -3.92514,-13.2437 -0.71703,-7.28062 -1.288698,-14.57694 -1.863052,-21.86981 -0.594032,-6.31048 -0.821231,-12.64133 -0.927979,-18.97845 -0.270523,-18.610144 0.05841,-37.236075 1.092952,-55.820254 0.509062,-8.074756 0.613772,-10.790574 1.361879,-18.696586 0.760164,-8.033427 0.608661,-5.623591 1.498477,-12.434085 0.08884,-0.679938 0.151535,-1.363035 0.227303,-2.044553 0.04255,-0.321742 0.0851,-0.643484 0.127649,-0.965226 z" />
  </g>
</svg>
