<?xml version="1.0" encoding="UTF-8" standalone="no"?>
<!-- Created with Inkscape (http://www.inkscape.org/) -->

<svg
   width="1024"
   height="1024"
   viewBox="0 0 270.9333 270.9333"
   version="1.1"
   id="svg1"
   inkscape:version="1.3.2 (091e20e, 2023-11-25, custom)"
   sodipodi:docname="sprite_game_timer_outline.svg"
   xmlns:inkscape="http://www.inkscape.org/namespaces/inkscape"
   xmlns:sodipodi="http://sodipodi.sourceforge.net/DTD/sodipodi-0.dtd"
   xmlns="http://www.w3.org/2000/svg"
   xmlns:svg="http://www.w3.org/2000/svg">
  <sodipodi:namedview
     id="namedview1"
     pagecolor="#ffffff"
     bordercolor="#000000"
     borderopacity="0.25"
     inkscape:showpageshadow="2"
     inkscape:pageopacity="0.0"
     inkscape:pagecheckerboard="true"
     inkscape:deskcolor="#d1d1d1"
     inkscape:document-units="px"
     inkscape:zoom="0.52738496"
     inkscape:cx="483.51777"
     inkscape:cy="534.71377"
     inkscape:window-width="1440"
     inkscape:window-height="830"
     inkscape:window-x="-6"
     inkscape:window-y="-6"
     inkscape:window-maximized="1"
     inkscape:current-layer="layer1" />
  <defs
     id="defs1" />
  <g
     inkscape:label="Layer 1"
     inkscape:groupmode="layer"
     id="layer1">
    <path
       id="path1"
       style="fill:#ffffff;stroke-width:0.283808"
       d="M 135.46665,0 A 135.46664,135.46664 0 0 0 0,135.46665 135.46664,135.46664 0 0 0 135.46665,270.93329 135.46664,135.46664 0 0 0 270.93329,135.46665 135.46664,135.46664 0 0 0 135.46665,0 Z m 0,33.866661 A 101.59999,101.59999 0 0 1 237.06663,135.46665 101.59999,101.59999 0 0 1 135.46665,237.06663 101.59999,101.59999 0 0 1 33.866661,135.46665 101.59999,101.59999 0 0 1 135.46665,33.866661 Z" />
  </g>
</svg>
