<?xml version="1.0" encoding="UTF-8" standalone="no"?><!DOCTYPE svg PUBLIC "-//W3C//DTD SVG 1.1//EN" "http://www.w3.org/Graphics/SVG/1.1/DTD/svg11.dtd"><svg width="100%" height="100%" viewBox="0 0 74 74" version="1.1" xmlns="http://www.w3.org/2000/svg" xmlns:xlink="http://www.w3.org/1999/xlink" xml:space="preserve" xmlns:serif="http://www.serif.com/" style="fill-rule:evenodd;clip-rule:evenodd;stroke-linecap:round;stroke-linejoin:round;stroke-miterlimit:1.5;"><rect id="Artboard3" x="0" y="0" width="74" height="74" style="fill:none;"/><g><path d="M74,5l0,64c0,2.76 -2.24,5 -5,5l-64,-0c-2.76,-0 -5,-2.24 -5,-5l0,-64c0,-2.76 2.24,-5 5,-5l64,-0c2.76,-0 5,2.24 5,5Z" style="fill:#171717;"/><path d="M74,5l0,64c0,2.76 -2.24,5 -5,5l-64,-0c-2.76,-0 -5,-2.24 -5,-5l0,-64c0,-2.76 2.24,-5 5,-5l64,-0c2.76,-0 5,2.24 5,5Zm-2.5,-0c0,-1.38 -1.12,-2.5 -2.5,-2.5l-64,-0c-1.38,-0 -2.5,1.12 -2.5,2.5l0,64c0,1.38 1.12,2.5 2.5,2.5l64,0c1.38,0 2.5,-1.12 2.5,-2.5l0,-64Z" style="fill:#313131;"/><path d="M40.25,45.25l-6.5,-0c-2.76,-0 -5,-2.24 -5,-5l0,-6.5c0,-2.76 2.24,-5 5,-5l6.5,-0c2.76,-0 5,2.24 5,5l0,6.5c0,2.76 -2.24,5 -5,5Z" style="fill:#d5d5d5;stroke:#282828;stroke-width:2.5px;"/></g></svg>