<?xml version="1.0" encoding="UTF-8" standalone="no"?><!DOCTYPE svg PUBLIC "-//W3C//DTD SVG 1.1//EN" "http://www.w3.org/Graphics/SVG/1.1/DTD/svg11.dtd"><svg width="100%" height="100%" viewBox="0 0 74 74" version="1.1" xmlns="http://www.w3.org/2000/svg" xmlns:xlink="http://www.w3.org/1999/xlink" xml:space="preserve" xmlns:serif="http://www.serif.com/" style="fill-rule:evenodd;clip-rule:evenodd;stroke-linecap:round;stroke-linejoin:round;stroke-miterlimit:1.5;"><rect id="Artboard3" x="0" y="0" width="74" height="74" style="fill:none;"/><g><path d="M74,5l0,64c0,2.76 -2.24,5 -5,5l-64,-0c-2.76,-0 -5,-2.24 -5,-5l0,-64c0,-2.76 2.24,-5 5,-5l64,-0c2.76,-0 5,2.24 5,5Z" style="fill:#fff;"/><path d="M74,5l0,64c0,2.76 -2.24,5 -5,5l-64,-0c-2.76,-0 -5,-2.24 -5,-5l0,-64c0,-2.76 2.24,-5 5,-5l64,-0c2.76,-0 5,2.24 5,5Zm-2.5,-0c0,-1.38 -1.12,-2.5 -2.5,-2.5l-64,-0c-1.38,-0 -2.5,1.12 -2.5,2.5l0,64c0,1.38 1.12,2.5 2.5,2.5l64,0c1.38,0 2.5,-1.12 2.5,-2.5l0,-64Z" style="fill:#e3e3e3;"/><path d="M45.132,40.536l-4.596,4.596c-1.952,1.951 -5.12,1.951 -7.072,-0l-4.596,-4.596c-1.951,-1.952 -1.951,-5.12 0,-7.072l4.596,-4.596c1.952,-1.951 5.12,-1.951 7.072,0l4.596,4.596c1.951,1.952 1.951,5.12 -0,7.072Z" style="fill:#2b2b2b;stroke:#e3e3e3;stroke-width:2.5px;"/></g></svg>