<?xml version="1.0" encoding="UTF-8" standalone="no"?><!DOCTYPE svg PUBLIC "-//W3C//DTD SVG 1.1//EN" "http://www.w3.org/Graphics/SVG/1.1/DTD/svg11.dtd"><svg width="100%" height="100%" viewBox="0 0 384 384" version="1.1" xmlns="http://www.w3.org/2000/svg" xmlns:xlink="http://www.w3.org/1999/xlink" xml:space="preserve" xmlns:serif="http://www.serif.com/" style="fill-rule:evenodd;clip-rule:evenodd;stroke-linecap:round;stroke-linejoin:round;stroke-miterlimit:1.5;"><rect id="Artboard5" x="0" y="0" width="384" height="384" style="fill:none;"/><g><g><path d="M96,37l-0,54c-0,2.76 -2.24,5 -5,5l-54,-0c-2.76,-0 -5,-2.24 -5,-5l-0,-54c-0,-2.76 2.24,-5 5,-5l54,-0c2.76,-0 5,2.24 5,5Z" style="fill:#171717;"/><path d="M96,37l-0,54c-0,2.76 -2.24,5 -5,5l-54,-0c-2.76,-0 -5,-2.24 -5,-5l-0,-54c-0,-2.76 2.24,-5 5,-5l54,-0c2.76,-0 5,2.24 5,5Zm-2.5,-0c-0,-1.38 -1.12,-2.5 -2.5,-2.5l-54,-0c-1.38,-0 -2.5,1.12 -2.5,2.5l-0,54c-0,1.38 1.12,2.5 2.5,2.5l54,-0c1.38,-0 2.5,-1.12 2.5,-2.5l-0,-54Z" style="fill:#313131;"/><path d="M66.135,71.135l-4.27,0c-2.76,0 -5,-2.24 -5,-5l-0,-4.27c-0,-2.76 2.24,-5 5,-5l4.27,-0c2.76,-0 5,2.24 5,5l0,4.27c0,2.76 -2.24,5 -5,5Z" style="fill:#d5d5d5;stroke:#282828;stroke-width:2.5px;"/></g><g><path d="M96,101l-0,54c-0,2.76 -2.24,5 -5,5l-54,0c-2.76,0 -5,-2.24 -5,-5l-0,-54c-0,-2.76 2.24,-5 5,-5l54,0c2.76,0 5,2.24 5,5Z" style="fill:#171717;"/><path d="M96,101l-0,54c-0,2.76 -2.24,5 -5,5l-54,0c-2.76,0 -5,-2.24 -5,-5l-0,-54c-0,-2.76 2.24,-5 5,-5l54,0c2.76,0 5,2.24 5,5Zm-2.5,-0c-0,-1.38 -1.12,-2.5 -2.5,-2.5l-54,0c-1.38,0 -2.5,1.12 -2.5,2.5l-0,54c-0,1.38 1.12,2.5 2.5,2.5l54,0c1.38,0 2.5,-1.12 2.5,-2.5l-0,-54Z" style="fill:#313131;"/><path d="M66.135,135.135l-4.27,0c-2.76,0 -5,-2.24 -5,-5l-0,-4.27c-0,-2.76 2.24,-5 5,-5l4.27,-0c2.76,-0 5,2.24 5,5l0,4.27c0,2.76 -2.24,5 -5,5Z" style="fill:#d5d5d5;stroke:#282828;stroke-width:2.5px;"/></g><g><path d="M96,165l-0,54c-0,2.76 -2.24,5 -5,5l-54,0c-2.76,0 -5,-2.24 -5,-5l-0,-54c-0,-2.76 2.24,-5 5,-5l54,0c2.76,0 5,2.24 5,5Z" style="fill:#171717;"/><path d="M96,165l-0,54c-0,2.76 -2.24,5 -5,5l-54,0c-2.76,0 -5,-2.24 -5,-5l-0,-54c-0,-2.76 2.24,-5 5,-5l54,0c2.76,0 5,2.24 5,5Zm-2.5,-0c-0,-1.38 -1.12,-2.5 -2.5,-2.5l-54,-0c-1.38,-0 -2.5,1.12 -2.5,2.5l-0,54c-0,1.38 1.12,2.5 2.5,2.5l54,0c1.38,0 2.5,-1.12 2.5,-2.5l-0,-54Z" style="fill:#313131;"/><path d="M66.135,199.135l-4.27,0c-2.76,0 -5,-2.24 -5,-5l-0,-4.27c-0,-2.76 2.24,-5 5,-5l4.27,-0c2.76,-0 5,2.24 5,5l0,4.27c0,2.76 -2.24,5 -5,5Z" style="fill:#d5d5d5;stroke:#282828;stroke-width:2.5px;"/></g><g><path d="M96,229l-0,54c-0,2.76 -2.24,5 -5,5l-54,0c-2.76,0 -5,-2.24 -5,-5l-0,-54c-0,-2.76 2.24,-5 5,-5l54,0c2.76,0 5,2.24 5,5Z" style="fill:#171717;"/><path d="M96,229l-0,54c-0,2.76 -2.24,5 -5,5l-54,0c-2.76,0 -5,-2.24 -5,-5l-0,-54c-0,-2.76 2.24,-5 5,-5l54,0c2.76,0 5,2.24 5,5Zm-2.5,-0c-0,-1.38 -1.12,-2.5 -2.5,-2.5l-54,0c-1.38,0 -2.5,1.12 -2.5,2.5l-0,54c-0,1.38 1.12,2.5 2.5,2.5l54,0c1.38,0 2.5,-1.12 2.5,-2.5l-0,-54Z" style="fill:#313131;"/><path d="M66.135,263.135l-4.27,0c-2.76,0 -5,-2.24 -5,-5l-0,-4.27c-0,-2.76 2.24,-5 5,-5l4.27,-0c2.76,-0 5,2.24 5,5l0,4.27c0,2.76 -2.24,5 -5,5Z" style="fill:#d5d5d5;stroke:#282828;stroke-width:2.5px;"/></g><g><path d="M96,293l-0,54c-0,2.76 -2.24,5 -5,5l-54,-0c-2.76,-0 -5,-2.24 -5,-5l-0,-54c-0,-2.76 2.24,-5 5,-5l54,-0c2.76,-0 5,2.24 5,5Z" style="fill:#171717;"/><path d="M96,293l-0,54c-0,2.76 -2.24,5 -5,5l-54,-0c-2.76,-0 -5,-2.24 -5,-5l-0,-54c-0,-2.76 2.24,-5 5,-5l54,-0c2.76,-0 5,2.24 5,5Zm-2.5,-0c-0,-1.38 -1.12,-2.5 -2.5,-2.5l-54,-0c-1.38,-0 -2.5,1.12 -2.5,2.5l-0,54c-0,1.38 1.12,2.5 2.5,2.5l54,-0c1.38,-0 2.5,-1.12 2.5,-2.5l-0,-54Z" style="fill:#313131;"/><path d="M66.135,327.135l-4.27,0c-2.76,0 -5,-2.24 -5,-5l-0,-4.27c-0,-2.76 2.24,-5 5,-5l4.27,-0c2.76,-0 5,2.24 5,5l0,4.27c0,2.76 -2.24,5 -5,5Z" style="fill:#d5d5d5;stroke:#282828;stroke-width:2.5px;"/></g><g><path d="M160,37l-0,54c-0,2.76 -2.24,5 -5,5l-54,-0c-2.76,-0 -5,-2.24 -5,-5l-0,-54c-0,-2.76 2.24,-5 5,-5l54,-0c2.76,-0 5,2.24 5,5Z" style="fill:#171717;"/><path d="M160,37l-0,54c-0,2.76 -2.24,5 -5,5l-54,-0c-2.76,-0 -5,-2.24 -5,-5l-0,-54c-0,-2.76 2.24,-5 5,-5l54,-0c2.76,-0 5,2.24 5,5Zm-2.5,0c-0,-1.38 -1.12,-2.5 -2.5,-2.5l-54,-0c-1.38,-0 -2.5,1.12 -2.5,2.5l-0,54c-0,1.38 1.12,2.5 2.5,2.5l54,-0c1.38,-0 2.5,-1.12 2.5,-2.5l-0,-54Z" style="fill:#313131;"/><path d="M130.135,71.135l-4.27,0c-2.76,0 -5,-2.24 -5,-5l-0,-4.27c-0,-2.76 2.24,-5 5,-5l4.27,-0c2.76,-0 5,2.24 5,5l0,4.27c0,2.76 -2.24,5 -5,5Z" style="fill:#d5d5d5;stroke:#282828;stroke-width:2.5px;"/></g><g><path d="M160,101l-0,54c-0,2.76 -2.24,5 -5,5l-54,0c-2.76,0 -5,-2.24 -5,-5l-0,-54c-0,-2.76 2.24,-5 5,-5l54,0c2.76,0 5,2.24 5,5Z" style="fill:#171717;"/><path d="M160,101l-0,54c-0,2.76 -2.24,5 -5,5l-54,0c-2.76,0 -5,-2.24 -5,-5l-0,-54c-0,-2.76 2.24,-5 5,-5l54,0c2.76,0 5,2.24 5,5Zm-2.5,0c-0,-1.38 -1.12,-2.5 -2.5,-2.5l-54,0c-1.38,0 -2.5,1.12 -2.5,2.5l-0,54c-0,1.38 1.12,2.5 2.5,2.5l54,0c1.38,0 2.5,-1.12 2.5,-2.5l-0,-54Z" style="fill:#313131;"/><path d="M130.135,135.135l-4.27,0c-2.76,0 -5,-2.24 -5,-5l-0,-4.27c-0,-2.76 2.24,-5 5,-5l4.27,-0c2.76,-0 5,2.24 5,5l0,4.27c0,2.76 -2.24,5 -5,5Z" style="fill:#d5d5d5;stroke:#282828;stroke-width:2.5px;"/></g><g><path d="M160,165l-0,54c-0,2.76 -2.24,5 -5,5l-54,0c-2.76,0 -5,-2.24 -5,-5l-0,-54c-0,-2.76 2.24,-5 5,-5l54,0c2.76,0 5,2.24 5,5Z" style="fill:#171717;"/><path d="M160,165l-0,54c-0,2.76 -2.24,5 -5,5l-54,0c-2.76,0 -5,-2.24 -5,-5l-0,-54c-0,-2.76 2.24,-5 5,-5l54,0c2.76,0 5,2.24 5,5Zm-2.5,0c-0,-1.38 -1.12,-2.5 -2.5,-2.5l-54,-0c-1.38,-0 -2.5,1.12 -2.5,2.5l-0,54c-0,1.38 1.12,2.5 2.5,2.5l54,0c1.38,0 2.5,-1.12 2.5,-2.5l-0,-54Z" style="fill:#313131;"/><path d="M130.135,199.135l-4.27,0c-2.76,0 -5,-2.24 -5,-5l-0,-4.27c-0,-2.76 2.24,-5 5,-5l4.27,-0c2.76,-0 5,2.24 5,5l0,4.27c0,2.76 -2.24,5 -5,5Z" style="fill:#d5d5d5;stroke:#282828;stroke-width:2.5px;"/></g><g><path d="M160,229l-0,54c-0,2.76 -2.24,5 -5,5l-54,0c-2.76,0 -5,-2.24 -5,-5l-0,-54c-0,-2.76 2.24,-5 5,-5l54,0c2.76,0 5,2.24 5,5Z" style="fill:#171717;"/><path d="M160,229l-0,54c-0,2.76 -2.24,5 -5,5l-54,0c-2.76,0 -5,-2.24 -5,-5l-0,-54c-0,-2.76 2.24,-5 5,-5l54,0c2.76,0 5,2.24 5,5Zm-2.5,0c-0,-1.38 -1.12,-2.5 -2.5,-2.5l-54,0c-1.38,0 -2.5,1.12 -2.5,2.5l-0,54c-0,1.38 1.12,2.5 2.5,2.5l54,0c1.38,0 2.5,-1.12 2.5,-2.5l-0,-54Z" style="fill:#313131;"/><path d="M130.135,263.135l-4.27,0c-2.76,0 -5,-2.24 -5,-5l-0,-4.27c-0,-2.76 2.24,-5 5,-5l4.27,-0c2.76,-0 5,2.24 5,5l0,4.27c0,2.76 -2.24,5 -5,5Z" style="fill:#d5d5d5;stroke:#282828;stroke-width:2.5px;"/></g><g><path d="M160,293l-0,54c-0,2.76 -2.24,5 -5,5l-54,-0c-2.76,-0 -5,-2.24 -5,-5l-0,-54c-0,-2.76 2.24,-5 5,-5l54,-0c2.76,-0 5,2.24 5,5Z" style="fill:#171717;"/><path d="M160,293l-0,54c-0,2.76 -2.24,5 -5,5l-54,-0c-2.76,-0 -5,-2.24 -5,-5l-0,-54c-0,-2.76 2.24,-5 5,-5l54,-0c2.76,-0 5,2.24 5,5Zm-2.5,0c-0,-1.38 -1.12,-2.5 -2.5,-2.5l-54,-0c-1.38,-0 -2.5,1.12 -2.5,2.5l-0,54c-0,1.38 1.12,2.5 2.5,2.5l54,-0c1.38,-0 2.5,-1.12 2.5,-2.5l-0,-54Z" style="fill:#313131;"/><path d="M130.135,327.135l-4.27,0c-2.76,0 -5,-2.24 -5,-5l-0,-4.27c-0,-2.76 2.24,-5 5,-5l4.27,-0c2.76,-0 5,2.24 5,5l0,4.27c0,2.76 -2.24,5 -5,5Z" style="fill:#d5d5d5;stroke:#282828;stroke-width:2.5px;"/></g><g><path d="M224,37l0,54c0,2.76 -2.24,5 -5,5l-54,-0c-2.76,-0 -5,-2.24 -5,-5l0,-54c0,-2.76 2.24,-5 5,-5l54,-0c2.76,-0 5,2.24 5,5Z" style="fill:#171717;"/><path d="M224,37l0,54c0,2.76 -2.24,5 -5,5l-54,-0c-2.76,-0 -5,-2.24 -5,-5l0,-54c0,-2.76 2.24,-5 5,-5l54,-0c2.76,-0 5,2.24 5,5Zm-2.5,0c0,-1.38 -1.12,-2.5 -2.5,-2.5l-54,-0c-1.38,-0 -2.5,1.12 -2.5,2.5l0,54c0,1.38 1.12,2.5 2.5,2.5l54,-0c1.38,-0 2.5,-1.12 2.5,-2.5l0,-54Z" style="fill:#313131;"/><path d="M194.135,71.135l-4.27,0c-2.76,0 -5,-2.24 -5,-5l-0,-4.27c-0,-2.76 2.24,-5 5,-5l4.27,-0c2.76,-0 5,2.24 5,5l0,4.27c0,2.76 -2.24,5 -5,5Z" style="fill:#d5d5d5;stroke:#282828;stroke-width:2.5px;"/></g><g><path d="M224,101l0,54c0,2.76 -2.24,5 -5,5l-54,0c-2.76,0 -5,-2.24 -5,-5l0,-54c0,-2.76 2.24,-5 5,-5l54,0c2.76,0 5,2.24 5,5Z" style="fill:#171717;"/><path d="M224,101l0,54c0,2.76 -2.24,5 -5,5l-54,0c-2.76,0 -5,-2.24 -5,-5l0,-54c0,-2.76 2.24,-5 5,-5l54,0c2.76,0 5,2.24 5,5Zm-2.5,0c0,-1.38 -1.12,-2.5 -2.5,-2.5l-54,0c-1.38,0 -2.5,1.12 -2.5,2.5l0,54c0,1.38 1.12,2.5 2.5,2.5l54,0c1.38,0 2.5,-1.12 2.5,-2.5l0,-54Z" style="fill:#313131;"/><path d="M194.135,135.135l-4.27,0c-2.76,0 -5,-2.24 -5,-5l-0,-4.27c-0,-2.76 2.24,-5 5,-5l4.27,-0c2.76,-0 5,2.24 5,5l0,4.27c0,2.76 -2.24,5 -5,5Z" style="fill:#d5d5d5;stroke:#282828;stroke-width:2.5px;"/></g><g><path d="M224,165l0,54c0,2.76 -2.24,5 -5,5l-54,0c-2.76,0 -5,-2.24 -5,-5l0,-54c0,-2.76 2.24,-5 5,-5l54,0c2.76,0 5,2.24 5,5Z" style="fill:#171717;"/><path d="M224,165l0,54c0,2.76 -2.24,5 -5,5l-54,0c-2.76,0 -5,-2.24 -5,-5l0,-54c0,-2.76 2.24,-5 5,-5l54,0c2.76,0 5,2.24 5,5Zm-2.5,0c0,-1.38 -1.12,-2.5 -2.5,-2.5l-54,-0c-1.38,-0 -2.5,1.12 -2.5,2.5l0,54c0,1.38 1.12,2.5 2.5,2.5l54,0c1.38,0 2.5,-1.12 2.5,-2.5l0,-54Z" style="fill:#313131;"/><path d="M194.135,199.135l-4.27,0c-2.76,0 -5,-2.24 -5,-5l-0,-4.27c-0,-2.76 2.24,-5 5,-5l4.27,-0c2.76,-0 5,2.24 5,5l0,4.27c0,2.76 -2.24,5 -5,5Z" style="fill:#d5d5d5;stroke:#282828;stroke-width:2.5px;"/></g><g><path d="M224,229l0,54c0,2.76 -2.24,5 -5,5l-54,0c-2.76,0 -5,-2.24 -5,-5l0,-54c0,-2.76 2.24,-5 5,-5l54,0c2.76,0 5,2.24 5,5Z" style="fill:#171717;"/><path d="M224,229l0,54c0,2.76 -2.24,5 -5,5l-54,0c-2.76,0 -5,-2.24 -5,-5l0,-54c0,-2.76 2.24,-5 5,-5l54,0c2.76,0 5,2.24 5,5Zm-2.5,0c0,-1.38 -1.12,-2.5 -2.5,-2.5l-54,0c-1.38,0 -2.5,1.12 -2.5,2.5l0,54c0,1.38 1.12,2.5 2.5,2.5l54,0c1.38,0 2.5,-1.12 2.5,-2.5l0,-54Z" style="fill:#313131;"/><path d="M194.135,263.135l-4.27,0c-2.76,0 -5,-2.24 -5,-5l-0,-4.27c-0,-2.76 2.24,-5 5,-5l4.27,-0c2.76,-0 5,2.24 5,5l0,4.27c0,2.76 -2.24,5 -5,5Z" style="fill:#d5d5d5;stroke:#282828;stroke-width:2.5px;"/></g><g><path d="M224,293l0,54c0,2.76 -2.24,5 -5,5l-54,-0c-2.76,-0 -5,-2.24 -5,-5l0,-54c0,-2.76 2.24,-5 5,-5l54,-0c2.76,-0 5,2.24 5,5Z" style="fill:#171717;"/><path d="M224,293l0,54c0,2.76 -2.24,5 -5,5l-54,-0c-2.76,-0 -5,-2.24 -5,-5l0,-54c0,-2.76 2.24,-5 5,-5l54,-0c2.76,-0 5,2.24 5,5Zm-2.5,0c0,-1.38 -1.12,-2.5 -2.5,-2.5l-54,-0c-1.38,-0 -2.5,1.12 -2.5,2.5l0,54c0,1.38 1.12,2.5 2.5,2.5l54,-0c1.38,-0 2.5,-1.12 2.5,-2.5l0,-54Z" style="fill:#313131;"/><path d="M194.135,327.135l-4.27,0c-2.76,0 -5,-2.24 -5,-5l-0,-4.27c-0,-2.76 2.24,-5 5,-5l4.27,-0c2.76,-0 5,2.24 5,5l0,4.27c0,2.76 -2.24,5 -5,5Z" style="fill:#d5d5d5;stroke:#282828;stroke-width:2.5px;"/></g><g><path d="M288,37l0,54c0,2.76 -2.24,5 -5,5l-54,-0c-2.76,-0 -5,-2.24 -5,-5l0,-54c0,-2.76 2.24,-5 5,-5l54,-0c2.76,-0 5,2.24 5,5Z" style="fill:#171717;"/><path d="M288,37l0,54c0,2.76 -2.24,5 -5,5l-54,-0c-2.76,-0 -5,-2.24 -5,-5l0,-54c0,-2.76 2.24,-5 5,-5l54,-0c2.76,-0 5,2.24 5,5Zm-2.5,0c0,-1.38 -1.12,-2.5 -2.5,-2.5l-54,-0c-1.38,-0 -2.5,1.12 -2.5,2.5l0,54c0,1.38 1.12,2.5 2.5,2.5l54,-0c1.38,-0 2.5,-1.12 2.5,-2.5l0,-54Z" style="fill:#313131;"/><path d="M258.135,71.135l-4.27,0c-2.76,0 -5,-2.24 -5,-5l-0,-4.27c-0,-2.76 2.24,-5 5,-5l4.27,-0c2.76,-0 5,2.24 5,5l0,4.27c0,2.76 -2.24,5 -5,5Z" style="fill:#d5d5d5;stroke:#282828;stroke-width:2.5px;"/></g><g><path d="M288,101l0,54c0,2.76 -2.24,5 -5,5l-54,0c-2.76,0 -5,-2.24 -5,-5l0,-54c0,-2.76 2.24,-5 5,-5l54,0c2.76,0 5,2.24 5,5Z" style="fill:#171717;"/><path d="M288,101l0,54c0,2.76 -2.24,5 -5,5l-54,0c-2.76,0 -5,-2.24 -5,-5l0,-54c0,-2.76 2.24,-5 5,-5l54,0c2.76,0 5,2.24 5,5Zm-2.5,0c0,-1.38 -1.12,-2.5 -2.5,-2.5l-54,0c-1.38,0 -2.5,1.12 -2.5,2.5l0,54c0,1.38 1.12,2.5 2.5,2.5l54,0c1.38,0 2.5,-1.12 2.5,-2.5l0,-54Z" style="fill:#313131;"/><path d="M258.135,135.135l-4.27,0c-2.76,0 -5,-2.24 -5,-5l-0,-4.27c-0,-2.76 2.24,-5 5,-5l4.27,-0c2.76,-0 5,2.24 5,5l0,4.27c0,2.76 -2.24,5 -5,5Z" style="fill:#d5d5d5;stroke:#282828;stroke-width:2.5px;"/></g><g><path d="M288,165l0,54c0,2.76 -2.24,5 -5,5l-54,0c-2.76,0 -5,-2.24 -5,-5l0,-54c0,-2.76 2.24,-5 5,-5l54,0c2.76,0 5,2.24 5,5Z" style="fill:#171717;"/><path d="M288,165l0,54c0,2.76 -2.24,5 -5,5l-54,0c-2.76,0 -5,-2.24 -5,-5l0,-54c0,-2.76 2.24,-5 5,-5l54,0c2.76,0 5,2.24 5,5Zm-2.5,0c0,-1.38 -1.12,-2.5 -2.5,-2.5l-54,-0c-1.38,-0 -2.5,1.12 -2.5,2.5l0,54c0,1.38 1.12,2.5 2.5,2.5l54,0c1.38,0 2.5,-1.12 2.5,-2.5l0,-54Z" style="fill:#313131;"/><path d="M258.135,199.135l-4.27,0c-2.76,0 -5,-2.24 -5,-5l-0,-4.27c-0,-2.76 2.24,-5 5,-5l4.27,-0c2.76,-0 5,2.24 5,5l0,4.27c0,2.76 -2.24,5 -5,5Z" style="fill:#d5d5d5;stroke:#282828;stroke-width:2.5px;"/></g><g><path d="M288,229l0,54c0,2.76 -2.24,5 -5,5l-54,0c-2.76,0 -5,-2.24 -5,-5l0,-54c0,-2.76 2.24,-5 5,-5l54,0c2.76,0 5,2.24 5,5Z" style="fill:#171717;"/><path d="M288,229l0,54c0,2.76 -2.24,5 -5,5l-54,0c-2.76,0 -5,-2.24 -5,-5l0,-54c0,-2.76 2.24,-5 5,-5l54,0c2.76,0 5,2.24 5,5Zm-2.5,0c0,-1.38 -1.12,-2.5 -2.5,-2.5l-54,0c-1.38,0 -2.5,1.12 -2.5,2.5l0,54c0,1.38 1.12,2.5 2.5,2.5l54,0c1.38,0 2.5,-1.12 2.5,-2.5l0,-54Z" style="fill:#313131;"/><path d="M258.135,263.135l-4.27,0c-2.76,0 -5,-2.24 -5,-5l-0,-4.27c-0,-2.76 2.24,-5 5,-5l4.27,-0c2.76,-0 5,2.24 5,5l0,4.27c0,2.76 -2.24,5 -5,5Z" style="fill:#d5d5d5;stroke:#282828;stroke-width:2.5px;"/></g><g><path d="M288,293l0,54c0,2.76 -2.24,5 -5,5l-54,-0c-2.76,-0 -5,-2.24 -5,-5l0,-54c0,-2.76 2.24,-5 5,-5l54,-0c2.76,-0 5,2.24 5,5Z" style="fill:#171717;"/><path d="M288,293l0,54c0,2.76 -2.24,5 -5,5l-54,-0c-2.76,-0 -5,-2.24 -5,-5l0,-54c0,-2.76 2.24,-5 5,-5l54,-0c2.76,-0 5,2.24 5,5Zm-2.5,0c0,-1.38 -1.12,-2.5 -2.5,-2.5l-54,-0c-1.38,-0 -2.5,1.12 -2.5,2.5l0,54c0,1.38 1.12,2.5 2.5,2.5l54,-0c1.38,-0 2.5,-1.12 2.5,-2.5l0,-54Z" style="fill:#313131;"/><path d="M258.135,327.135l-4.27,0c-2.76,0 -5,-2.24 -5,-5l-0,-4.27c-0,-2.76 2.24,-5 5,-5l4.27,-0c2.76,-0 5,2.24 5,5l0,4.27c0,2.76 -2.24,5 -5,5Z" style="fill:#d5d5d5;stroke:#282828;stroke-width:2.5px;"/></g><g><path d="M352,37l0,54c0,2.76 -2.24,5 -5,5l-54,-0c-2.76,-0 -5,-2.24 -5,-5l0,-54c0,-2.76 2.24,-5 5,-5l54,-0c2.76,-0 5,2.24 5,5Z" style="fill:#171717;"/><path d="M352,37l0,54c0,2.76 -2.24,5 -5,5l-54,-0c-2.76,-0 -5,-2.24 -5,-5l0,-54c0,-2.76 2.24,-5 5,-5l54,-0c2.76,-0 5,2.24 5,5Zm-2.5,0c0,-1.38 -1.12,-2.5 -2.5,-2.5l-54,-0c-1.38,-0 -2.5,1.12 -2.5,2.5l0,54c0,1.38 1.12,2.5 2.5,2.5l54,-0c1.38,-0 2.5,-1.12 2.5,-2.5l0,-54Z" style="fill:#313131;"/><path d="M322.135,71.135l-4.27,0c-2.76,0 -5,-2.24 -5,-5l-0,-4.27c-0,-2.76 2.24,-5 5,-5l4.27,-0c2.76,-0 5,2.24 5,5l0,4.27c0,2.76 -2.24,5 -5,5Z" style="fill:#d5d5d5;stroke:#282828;stroke-width:2.5px;"/></g><g><path d="M352,101l0,54c0,2.76 -2.24,5 -5,5l-54,0c-2.76,0 -5,-2.24 -5,-5l0,-54c0,-2.76 2.24,-5 5,-5l54,0c2.76,0 5,2.24 5,5Z" style="fill:#171717;"/><path d="M352,101l0,54c0,2.76 -2.24,5 -5,5l-54,0c-2.76,0 -5,-2.24 -5,-5l0,-54c0,-2.76 2.24,-5 5,-5l54,0c2.76,0 5,2.24 5,5Zm-2.5,0c0,-1.38 -1.12,-2.5 -2.5,-2.5l-54,0c-1.38,0 -2.5,1.12 -2.5,2.5l0,54c0,1.38 1.12,2.5 2.5,2.5l54,0c1.38,0 2.5,-1.12 2.5,-2.5l0,-54Z" style="fill:#313131;"/><path d="M322.135,135.135l-4.27,0c-2.76,0 -5,-2.24 -5,-5l-0,-4.27c-0,-2.76 2.24,-5 5,-5l4.27,-0c2.76,-0 5,2.24 5,5l0,4.27c0,2.76 -2.24,5 -5,5Z" style="fill:#d5d5d5;stroke:#282828;stroke-width:2.5px;"/></g><g><path d="M352,165l0,54c0,2.76 -2.24,5 -5,5l-54,0c-2.76,0 -5,-2.24 -5,-5l0,-54c0,-2.76 2.24,-5 5,-5l54,0c2.76,0 5,2.24 5,5Z" style="fill:#171717;"/><path d="M352,165l0,54c0,2.76 -2.24,5 -5,5l-54,0c-2.76,0 -5,-2.24 -5,-5l0,-54c0,-2.76 2.24,-5 5,-5l54,0c2.76,0 5,2.24 5,5Zm-2.5,0c0,-1.38 -1.12,-2.5 -2.5,-2.5l-54,-0c-1.38,-0 -2.5,1.12 -2.5,2.5l0,54c0,1.38 1.12,2.5 2.5,2.5l54,0c1.38,0 2.5,-1.12 2.5,-2.5l0,-54Z" style="fill:#313131;"/><path d="M322.135,199.135l-4.27,0c-2.76,0 -5,-2.24 -5,-5l-0,-4.27c-0,-2.76 2.24,-5 5,-5l4.27,-0c2.76,-0 5,2.24 5,5l0,4.27c0,2.76 -2.24,5 -5,5Z" style="fill:#d5d5d5;stroke:#282828;stroke-width:2.5px;"/></g><g><path d="M352,229l0,54c0,2.76 -2.24,5 -5,5l-54,0c-2.76,0 -5,-2.24 -5,-5l0,-54c0,-2.76 2.24,-5 5,-5l54,0c2.76,0 5,2.24 5,5Z" style="fill:#171717;"/><path d="M352,229l0,54c0,2.76 -2.24,5 -5,5l-54,0c-2.76,0 -5,-2.24 -5,-5l0,-54c0,-2.76 2.24,-5 5,-5l54,0c2.76,0 5,2.24 5,5Zm-2.5,0c0,-1.38 -1.12,-2.5 -2.5,-2.5l-54,0c-1.38,0 -2.5,1.12 -2.5,2.5l0,54c0,1.38 1.12,2.5 2.5,2.5l54,0c1.38,0 2.5,-1.12 2.5,-2.5l0,-54Z" style="fill:#313131;"/><path d="M322.135,263.135l-4.27,0c-2.76,0 -5,-2.24 -5,-5l-0,-4.27c-0,-2.76 2.24,-5 5,-5l4.27,-0c2.76,-0 5,2.24 5,5l0,4.27c0,2.76 -2.24,5 -5,5Z" style="fill:#d5d5d5;stroke:#282828;stroke-width:2.5px;"/></g><g><path d="M352,293l0,54c0,2.76 -2.24,5 -5,5l-54,-0c-2.76,-0 -5,-2.24 -5,-5l0,-54c0,-2.76 2.24,-5 5,-5l54,-0c2.76,-0 5,2.24 5,5Z" style="fill:#171717;"/><path d="M352,293l0,54c0,2.76 -2.24,5 -5,5l-54,-0c-2.76,-0 -5,-2.24 -5,-5l0,-54c0,-2.76 2.24,-5 5,-5l54,-0c2.76,-0 5,2.24 5,5Zm-2.5,0c0,-1.38 -1.12,-2.5 -2.5,-2.5l-54,-0c-1.38,-0 -2.5,1.12 -2.5,2.5l0,54c0,1.38 1.12,2.5 2.5,2.5l54,-0c1.38,-0 2.5,-1.12 2.5,-2.5l0,-54Z" style="fill:#313131;"/><path d="M322.135,327.135l-4.27,0c-2.76,0 -5,-2.24 -5,-5l-0,-4.27c-0,-2.76 2.24,-5 5,-5l4.27,-0c2.76,-0 5,2.24 5,5l0,4.27c0,2.76 -2.24,5 -5,5Z" style="fill:#d5d5d5;stroke:#282828;stroke-width:2.5px;"/></g></g><g><g><path d="M96,101l-0,54c-0,2.76 -2.24,5 -5,5l-54,-0c-2.76,-0 -5,-2.24 -5,-5l-0,-54c-0,-2.76 2.24,-5 5,-5l54,-0c2.76,-0 5,2.24 5,5Z" style="fill:#fff;"/><path d="M96,101l-0,54c-0,2.76 -2.24,5 -5,5l-54,-0c-2.76,-0 -5,-2.24 -5,-5l-0,-54c-0,-2.76 2.24,-5 5,-5l54,-0c2.76,-0 5,2.24 5,5Zm-2.5,-0c-0,-1.38 -1.12,-2.5 -2.5,-2.5l-54,-0c-1.38,-0 -2.5,1.12 -2.5,2.5l-0,54c-0,1.38 1.12,2.5 2.5,2.5l54,-0c1.38,-0 2.5,-1.12 2.5,-2.5l-0,-54Z" style="fill:#e3e3e3;"/><path d="M70.555,131.536l-3.019,3.019c-1.952,1.951 -5.12,1.951 -7.072,0l-3.019,-3.019c-1.951,-1.952 -1.951,-5.12 -0,-7.072l3.019,-3.019c1.952,-1.951 5.12,-1.951 7.072,-0l3.019,3.019c1.951,1.952 1.951,5.12 0,7.072Z" style="fill:#2b2b2b;stroke:#e3e3e3;stroke-width:2.5px;"/></g><g><path d="M96,165l-0,54c-0,2.76 -2.24,5 -5,5l-54,-0c-2.76,-0 -5,-2.24 -5,-5l-0,-54c-0,-2.76 2.24,-5 5,-5l54,-0c2.76,-0 5,2.24 5,5Z" style="fill:#fff;"/><path d="M96,165l-0,54c-0,2.76 -2.24,5 -5,5l-54,-0c-2.76,-0 -5,-2.24 -5,-5l-0,-54c-0,-2.76 2.24,-5 5,-5l54,-0c2.76,-0 5,2.24 5,5Zm-2.5,-0c-0,-1.38 -1.12,-2.5 -2.5,-2.5l-54,-0c-1.38,-0 -2.5,1.12 -2.5,2.5l-0,54c-0,1.38 1.12,2.5 2.5,2.5l54,-0c1.38,-0 2.5,-1.12 2.5,-2.5l-0,-54Z" style="fill:#e3e3e3;"/><path d="M70.555,195.536l-3.019,3.019c-1.952,1.951 -5.12,1.951 -7.072,0l-3.019,-3.019c-1.951,-1.952 -1.951,-5.12 -0,-7.072l3.019,-3.019c1.952,-1.951 5.12,-1.951 7.072,-0l3.019,3.019c1.951,1.952 1.951,5.12 0,7.072Z" style="fill:#2b2b2b;stroke:#e3e3e3;stroke-width:2.5px;"/></g><g><path d="M96,293l-0,54c-0,2.76 -2.24,5 -5,5l-54,-0c-2.76,-0 -5,-2.24 -5,-5l-0,-54c-0,-2.76 2.24,-5 5,-5l54,-0c2.76,-0 5,2.24 5,5Z" style="fill:#fff;"/><path d="M96,293l-0,54c-0,2.76 -2.24,5 -5,5l-54,-0c-2.76,-0 -5,-2.24 -5,-5l-0,-54c-0,-2.76 2.24,-5 5,-5l54,-0c2.76,-0 5,2.24 5,5Zm-2.5,-0c-0,-1.38 -1.12,-2.5 -2.5,-2.5l-54,-0c-1.38,-0 -2.5,1.12 -2.5,2.5l-0,54c-0,1.38 1.12,2.5 2.5,2.5l54,-0c1.38,-0 2.5,-1.12 2.5,-2.5l-0,-54Z" style="fill:#e3e3e3;"/><path d="M70.555,323.536l-3.019,3.019c-1.952,1.951 -5.12,1.951 -7.072,0l-3.019,-3.019c-1.951,-1.952 -1.951,-5.12 -0,-7.072l3.019,-3.019c1.952,-1.951 5.12,-1.951 7.072,-0l3.019,3.019c1.951,1.952 1.951,5.12 0,7.072Z" style="fill:#2b2b2b;stroke:#e3e3e3;stroke-width:2.5px;"/></g><g><path d="M224,229l0,54c0,2.76 -2.24,5 -5,5l-54,-0c-2.76,-0 -5,-2.24 -5,-5l0,-54c0,-2.76 2.24,-5 5,-5l54,-0c2.76,-0 5,2.24 5,5Z" style="fill:#fff;"/><path d="M224,229l0,54c0,2.76 -2.24,5 -5,5l-54,-0c-2.76,-0 -5,-2.24 -5,-5l0,-54c0,-2.76 2.24,-5 5,-5l54,-0c2.76,-0 5,2.24 5,5Zm-2.5,0c0,-1.38 -1.12,-2.5 -2.5,-2.5l-54,-0c-1.38,-0 -2.5,1.12 -2.5,2.5l0,54c0,1.38 1.12,2.5 2.5,2.5l54,-0c1.38,-0 2.5,-1.12 2.5,-2.5l0,-54Z" style="fill:#e3e3e3;"/><path d="M198.555,259.536l-3.019,3.019c-1.952,1.951 -5.12,1.951 -7.072,0l-3.019,-3.019c-1.951,-1.952 -1.951,-5.12 -0,-7.072l3.019,-3.019c1.952,-1.951 5.12,-1.951 7.072,-0l3.019,3.019c1.951,1.952 1.951,5.12 0,7.072Z" style="fill:#2b2b2b;stroke:#e3e3e3;stroke-width:2.5px;"/></g><g><path d="M160,165l0,54c0,2.76 -2.24,5 -5,5l-54,0c-2.76,0 -5,-2.24 -5,-5l0,-54c0,-2.76 2.24,-5 5,-5l54,0c2.76,0 5,2.24 5,5Z" style="fill:#fff;"/><path d="M160,165l0,54c0,2.76 -2.24,5 -5,5l-54,0c-2.76,0 -5,-2.24 -5,-5l0,-54c0,-2.76 2.24,-5 5,-5l54,0c2.76,0 5,2.24 5,5Zm-2.5,0c0,-1.38 -1.12,-2.5 -2.5,-2.5l-54,0c-1.38,0 -2.5,1.12 -2.5,2.5l0,54c0,1.38 1.12,2.5 2.5,2.5l54,0c1.38,0 2.5,-1.12 2.5,-2.5l0,-54Z" style="fill:#e3e3e3;"/><path d="M134.555,195.536l-3.019,3.019c-1.952,1.951 -5.12,1.951 -7.072,0l-3.019,-3.019c-1.951,-1.952 -1.951,-5.12 -0,-7.072l3.019,-3.019c1.952,-1.951 5.12,-1.951 7.072,-0l3.019,3.019c1.951,1.952 1.951,5.12 0,7.072Z" style="fill:#2b2b2b;stroke:#e3e3e3;stroke-width:2.5px;"/></g><g><path d="M224,293l0,54c0,2.76 -2.24,5 -5,5l-54,-0c-2.76,-0 -5,-2.24 -5,-5l0,-54c0,-2.76 2.24,-5 5,-5l54,-0c2.76,-0 5,2.24 5,5Z" style="fill:#fff;"/><path d="M224,293l0,54c0,2.76 -2.24,5 -5,5l-54,-0c-2.76,-0 -5,-2.24 -5,-5l0,-54c0,-2.76 2.24,-5 5,-5l54,-0c2.76,-0 5,2.24 5,5Zm-2.5,0c0,-1.38 -1.12,-2.5 -2.5,-2.5l-54,-0c-1.38,-0 -2.5,1.12 -2.5,2.5l0,54c0,1.38 1.12,2.5 2.5,2.5l54,-0c1.38,-0 2.5,-1.12 2.5,-2.5l0,-54Z" style="fill:#e3e3e3;"/><path d="M198.555,323.536l-3.019,3.019c-1.952,1.951 -5.12,1.951 -7.072,0l-3.019,-3.019c-1.951,-1.952 -1.951,-5.12 -0,-7.072l3.019,-3.019c1.952,-1.951 5.12,-1.951 7.072,-0l3.019,3.019c1.951,1.952 1.951,5.12 0,7.072Z" style="fill:#2b2b2b;stroke:#e3e3e3;stroke-width:2.5px;"/></g><g><path d="M224,101l0,54c0,2.76 -2.24,5 -5,5l-54,-0c-2.76,-0 -5,-2.24 -5,-5l0,-54c0,-2.76 2.24,-5 5,-5l54,-0c2.76,-0 5,2.24 5,5Z" style="fill:#fff;"/><path d="M224,101l0,54c0,2.76 -2.24,5 -5,5l-54,-0c-2.76,-0 -5,-2.24 -5,-5l0,-54c0,-2.76 2.24,-5 5,-5l54,-0c2.76,-0 5,2.24 5,5Zm-2.5,0c0,-1.38 -1.12,-2.5 -2.5,-2.5l-54,-0c-1.38,-0 -2.5,1.12 -2.5,2.5l0,54c0,1.38 1.12,2.5 2.5,2.5l54,-0c1.38,-0 2.5,-1.12 2.5,-2.5l0,-54Z" style="fill:#e3e3e3;"/><path d="M198.555,131.536l-3.019,3.019c-1.952,1.951 -5.12,1.951 -7.072,0l-3.019,-3.019c-1.951,-1.952 -1.951,-5.12 -0,-7.072l3.019,-3.019c1.952,-1.951 5.12,-1.951 7.072,-0l3.019,3.019c1.951,1.952 1.951,5.12 0,7.072Z" style="fill:#2b2b2b;stroke:#e3e3e3;stroke-width:2.5px;"/></g><g><path d="M288,165l-0,54c-0,2.76 -2.24,5 -5,5l-54,-0c-2.76,-0 -5,-2.24 -5,-5l-0,-54c-0,-2.76 2.24,-5 5,-5l54,-0c2.76,-0 5,2.24 5,5Z" style="fill:#fff;"/><path d="M288,165l-0,54c-0,2.76 -2.24,5 -5,5l-54,-0c-2.76,-0 -5,-2.24 -5,-5l-0,-54c-0,-2.76 2.24,-5 5,-5l54,-0c2.76,-0 5,2.24 5,5Zm-2.5,0c-0,-1.38 -1.12,-2.5 -2.5,-2.5l-54,-0c-1.38,-0 -2.5,1.12 -2.5,2.5l-0,54c-0,1.38 1.12,2.5 2.5,2.5l54,-0c1.38,-0 2.5,-1.12 2.5,-2.5l-0,-54Z" style="fill:#e3e3e3;"/><path d="M262.555,195.536l-3.019,3.019c-1.952,1.951 -5.12,1.951 -7.072,0l-3.019,-3.019c-1.951,-1.952 -1.951,-5.12 -0,-7.072l3.019,-3.019c1.952,-1.951 5.12,-1.951 7.072,-0l3.019,3.019c1.951,1.952 1.951,5.12 0,7.072Z" style="fill:#2b2b2b;stroke:#e3e3e3;stroke-width:2.5px;"/></g><g><path d="M352,229l-0,54c-0,2.76 -2.24,5 -5,5l-54,0c-2.76,0 -5,-2.24 -5,-5l-0,-54c-0,-2.76 2.24,-5 5,-5l54,0c2.76,0 5,2.24 5,5Z" style="fill:#fff;"/><path d="M352,229l-0,54c-0,2.76 -2.24,5 -5,5l-54,0c-2.76,0 -5,-2.24 -5,-5l-0,-54c-0,-2.76 2.24,-5 5,-5l54,0c2.76,0 5,2.24 5,5Zm-2.5,0c-0,-1.38 -1.12,-2.5 -2.5,-2.5l-54,0c-1.38,0 -2.5,1.12 -2.5,2.5l-0,54c-0,1.38 1.12,2.5 2.5,2.5l54,0c1.38,0 2.5,-1.12 2.5,-2.5l-0,-54Z" style="fill:#e3e3e3;"/><path d="M326.555,259.536l-3.019,3.019c-1.952,1.951 -5.12,1.951 -7.072,0l-3.019,-3.019c-1.951,-1.952 -1.951,-5.12 -0,-7.072l3.019,-3.019c1.952,-1.951 5.12,-1.951 7.072,-0l3.019,3.019c1.951,1.952 1.951,5.12 0,7.072Z" style="fill:#2b2b2b;stroke:#e3e3e3;stroke-width:2.5px;"/></g><g><path d="M352,293l-0,54c-0,2.76 -2.24,5 -5,5l-54,-0c-2.76,-0 -5,-2.24 -5,-5l-0,-54c-0,-2.76 2.24,-5 5,-5l54,-0c2.76,-0 5,2.24 5,5Z" style="fill:#fff;"/><path d="M352,293l-0,54c-0,2.76 -2.24,5 -5,5l-54,-0c-2.76,-0 -5,-2.24 -5,-5l-0,-54c-0,-2.76 2.24,-5 5,-5l54,-0c2.76,-0 5,2.24 5,5Zm-2.5,0c-0,-1.38 -1.12,-2.5 -2.5,-2.5l-54,-0c-1.38,-0 -2.5,1.12 -2.5,2.5l-0,54c-0,1.38 1.12,2.5 2.5,2.5l54,-0c1.38,-0 2.5,-1.12 2.5,-2.5l-0,-54Z" style="fill:#e3e3e3;"/><path d="M326.555,323.536l-3.019,3.019c-1.952,1.951 -5.12,1.951 -7.072,0l-3.019,-3.019c-1.951,-1.952 -1.951,-5.12 -0,-7.072l3.019,-3.019c1.952,-1.951 5.12,-1.951 7.072,-0l3.019,3.019c1.951,1.952 1.951,5.12 0,7.072Z" style="fill:#2b2b2b;stroke:#e3e3e3;stroke-width:2.5px;"/></g><g><path d="M352,37l0,54c0,2.76 -2.24,5 -5,5l-54,-0c-2.76,-0 -5,-2.24 -5,-5l0,-54c0,-2.76 2.24,-5 5,-5l54,-0c2.76,-0 5,2.24 5,5Z" style="fill:#fff;"/><path d="M352,37l0,54c0,2.76 -2.24,5 -5,5l-54,-0c-2.76,-0 -5,-2.24 -5,-5l0,-54c0,-2.76 2.24,-5 5,-5l54,-0c2.76,-0 5,2.24 5,5Zm-2.5,0c0,-1.38 -1.12,-2.5 -2.5,-2.5l-54,-0c-1.38,-0 -2.5,1.12 -2.5,2.5l0,54c0,1.38 1.12,2.5 2.5,2.5l54,-0c1.38,-0 2.5,-1.12 2.5,-2.5l0,-54Z" style="fill:#e3e3e3;"/><path d="M326.555,67.536l-3.019,3.019c-1.952,1.951 -5.12,1.951 -7.072,0l-3.019,-3.019c-1.951,-1.952 -1.951,-5.12 -0,-7.072l3.019,-3.019c1.952,-1.951 5.12,-1.951 7.072,-0l3.019,3.019c1.951,1.952 1.951,5.12 0,7.072Z" style="fill:#2b2b2b;stroke:#e3e3e3;stroke-width:2.5px;"/></g></g></svg>