<?xml version="1.0" encoding="UTF-8" standalone="no"?>
<svg
   width="768"
   height="768"
   viewBox="0 0 768 768"
   version="1.1"
   xml:space="preserve"
   style="clip-rule:evenodd;fill-rule:evenodd;stroke-linecap:round;stroke-linejoin:round;stroke-miterlimit:1.5"
   id="svg109"
   sodipodi:docname="sprite_stage_flip_tiles.svg"
   inkscape:version="1.3.2 (091e20e, 2023-11-25, custom)"
   xmlns:inkscape="http://www.inkscape.org/namespaces/inkscape"
   xmlns:sodipodi="http://sodipodi.sourceforge.net/DTD/sodipodi-0.dtd"
   xmlns="http://www.w3.org/2000/svg"
   xmlns:svg="http://www.w3.org/2000/svg"><defs
     id="defs109" /><sodipodi:namedview
     id="namedview109"
     pagecolor="#ffffff"
     bordercolor="#000000"
     borderopacity="0.25"
     inkscape:showpageshadow="2"
     inkscape:pageopacity="0.0"
     inkscape:pagecheckerboard="true"
     inkscape:deskcolor="#d1d1d1"
     inkscape:zoom="0.77083333"
     inkscape:cx="307.45946"
     inkscape:cy="294.48649"
     inkscape:window-width="1440"
     inkscape:window-height="830"
     inkscape:window-x="-6"
     inkscape:window-y="-6"
     inkscape:window-maximized="1"
     inkscape:current-layer="svg109" /><rect
     id="Artboard5"
     x="0"
     y="0"
     width="768"
     height="768"
     style="fill:none;stroke-width:1" /><g
     id="g76"
     transform="scale(2)"
     style="stroke-width:0.5"><g
       id="g3"
       style="stroke-width:0.5"><path
         d="m 96,37 v 54 c 0,2.76 -2.24,5 -5,5 H 37 c -2.76,0 -5,-2.24 -5,-5 V 37 c 0,-2.76 2.24,-5 5,-5 h 54 c 2.76,0 5,2.24 5,5 z"
         style="fill:#171717;stroke-width:0.5"
         id="path1" /><path
         d="m 96,37 v 54 c 0,2.76 -2.24,5 -5,5 H 37 c -2.76,0 -5,-2.24 -5,-5 V 37 c 0,-2.76 2.24,-5 5,-5 h 54 c 2.76,0 5,2.24 5,5 z m -2.5,0 c 0,-1.38 -1.12,-2.5 -2.5,-2.5 H 37 c -1.38,0 -2.5,1.12 -2.5,2.5 v 54 c 0,1.38 1.12,2.5 2.5,2.5 h 54 c 1.38,0 2.5,-1.12 2.5,-2.5 z"
         style="fill:#313131;stroke-width:0.5"
         id="path2" /><path
         d="m 66.135,71.135 h -4.27 c -2.76,0 -5,-2.24 -5,-5 v -4.27 c 0,-2.76 2.24,-5 5,-5 h 4.27 c 2.76,0 5,2.24 5,5 v 4.27 c 0,2.76 -2.24,5 -5,5 z"
         style="fill:#d5d5d5;stroke:#282828;stroke-width:1.25px"
         id="path3" /></g><g
       id="g6"
       style="stroke-width:0.5"><path
         d="m 96,101 v 54 c 0,2.76 -2.24,5 -5,5 H 37 c -2.76,0 -5,-2.24 -5,-5 v -54 c 0,-2.76 2.24,-5 5,-5 h 54 c 2.76,0 5,2.24 5,5 z"
         style="fill:#171717;stroke-width:0.5"
         id="path4" /><path
         d="m 96,101 v 54 c 0,2.76 -2.24,5 -5,5 H 37 c -2.76,0 -5,-2.24 -5,-5 v -54 c 0,-2.76 2.24,-5 5,-5 h 54 c 2.76,0 5,2.24 5,5 z m -2.5,0 c 0,-1.38 -1.12,-2.5 -2.5,-2.5 H 37 c -1.38,0 -2.5,1.12 -2.5,2.5 v 54 c 0,1.38 1.12,2.5 2.5,2.5 h 54 c 1.38,0 2.5,-1.12 2.5,-2.5 z"
         style="fill:#313131;stroke-width:0.5"
         id="path5" /><path
         d="m 66.135,135.135 h -4.27 c -2.76,0 -5,-2.24 -5,-5 v -4.27 c 0,-2.76 2.24,-5 5,-5 h 4.27 c 2.76,0 5,2.24 5,5 v 4.27 c 0,2.76 -2.24,5 -5,5 z"
         style="fill:#d5d5d5;stroke:#282828;stroke-width:1.25px"
         id="path6" /></g><g
       id="g9"
       style="stroke-width:0.5"><path
         d="m 96,165 v 54 c 0,2.76 -2.24,5 -5,5 H 37 c -2.76,0 -5,-2.24 -5,-5 v -54 c 0,-2.76 2.24,-5 5,-5 h 54 c 2.76,0 5,2.24 5,5 z"
         style="fill:#171717;stroke-width:0.5"
         id="path7" /><path
         d="m 96,165 v 54 c 0,2.76 -2.24,5 -5,5 H 37 c -2.76,0 -5,-2.24 -5,-5 v -54 c 0,-2.76 2.24,-5 5,-5 h 54 c 2.76,0 5,2.24 5,5 z m -2.5,0 c 0,-1.38 -1.12,-2.5 -2.5,-2.5 H 37 c -1.38,0 -2.5,1.12 -2.5,2.5 v 54 c 0,1.38 1.12,2.5 2.5,2.5 h 54 c 1.38,0 2.5,-1.12 2.5,-2.5 z"
         style="fill:#313131;stroke-width:0.5"
         id="path8" /><path
         d="m 66.135,199.135 h -4.27 c -2.76,0 -5,-2.24 -5,-5 v -4.27 c 0,-2.76 2.24,-5 5,-5 h 4.27 c 2.76,0 5,2.24 5,5 v 4.27 c 0,2.76 -2.24,5 -5,5 z"
         style="fill:#d5d5d5;stroke:#282828;stroke-width:1.25px"
         id="path9" /></g><g
       id="g12"
       style="stroke-width:0.5"><path
         d="m 96,229 v 54 c 0,2.76 -2.24,5 -5,5 H 37 c -2.76,0 -5,-2.24 -5,-5 v -54 c 0,-2.76 2.24,-5 5,-5 h 54 c 2.76,0 5,2.24 5,5 z"
         style="fill:#171717;stroke-width:0.5"
         id="path10" /><path
         d="m 96,229 v 54 c 0,2.76 -2.24,5 -5,5 H 37 c -2.76,0 -5,-2.24 -5,-5 v -54 c 0,-2.76 2.24,-5 5,-5 h 54 c 2.76,0 5,2.24 5,5 z m -2.5,0 c 0,-1.38 -1.12,-2.5 -2.5,-2.5 H 37 c -1.38,0 -2.5,1.12 -2.5,2.5 v 54 c 0,1.38 1.12,2.5 2.5,2.5 h 54 c 1.38,0 2.5,-1.12 2.5,-2.5 z"
         style="fill:#313131;stroke-width:0.5"
         id="path11" /><path
         d="m 66.135,263.135 h -4.27 c -2.76,0 -5,-2.24 -5,-5 v -4.27 c 0,-2.76 2.24,-5 5,-5 h 4.27 c 2.76,0 5,2.24 5,5 v 4.27 c 0,2.76 -2.24,5 -5,5 z"
         style="fill:#d5d5d5;stroke:#282828;stroke-width:1.25px"
         id="path12" /></g><g
       id="g15"
       style="stroke-width:0.5"><path
         d="m 96,293 v 54 c 0,2.76 -2.24,5 -5,5 H 37 c -2.76,0 -5,-2.24 -5,-5 v -54 c 0,-2.76 2.24,-5 5,-5 h 54 c 2.76,0 5,2.24 5,5 z"
         style="fill:#171717;stroke-width:0.5"
         id="path13" /><path
         d="m 96,293 v 54 c 0,2.76 -2.24,5 -5,5 H 37 c -2.76,0 -5,-2.24 -5,-5 v -54 c 0,-2.76 2.24,-5 5,-5 h 54 c 2.76,0 5,2.24 5,5 z m -2.5,0 c 0,-1.38 -1.12,-2.5 -2.5,-2.5 H 37 c -1.38,0 -2.5,1.12 -2.5,2.5 v 54 c 0,1.38 1.12,2.5 2.5,2.5 h 54 c 1.38,0 2.5,-1.12 2.5,-2.5 z"
         style="fill:#313131;stroke-width:0.5"
         id="path14" /><path
         d="m 66.135,327.135 h -4.27 c -2.76,0 -5,-2.24 -5,-5 v -4.27 c 0,-2.76 2.24,-5 5,-5 h 4.27 c 2.76,0 5,2.24 5,5 v 4.27 c 0,2.76 -2.24,5 -5,5 z"
         style="fill:#d5d5d5;stroke:#282828;stroke-width:1.25px"
         id="path15" /></g><g
       id="g18"
       style="stroke-width:0.5"><path
         d="m 160,37 v 54 c 0,2.76 -2.24,5 -5,5 h -54 c -2.76,0 -5,-2.24 -5,-5 V 37 c 0,-2.76 2.24,-5 5,-5 h 54 c 2.76,0 5,2.24 5,5 z"
         style="fill:#171717;stroke-width:0.5"
         id="path16" /><path
         d="m 160,37 v 54 c 0,2.76 -2.24,5 -5,5 h -54 c -2.76,0 -5,-2.24 -5,-5 V 37 c 0,-2.76 2.24,-5 5,-5 h 54 c 2.76,0 5,2.24 5,5 z m -2.5,0 c 0,-1.38 -1.12,-2.5 -2.5,-2.5 h -54 c -1.38,0 -2.5,1.12 -2.5,2.5 v 54 c 0,1.38 1.12,2.5 2.5,2.5 h 54 c 1.38,0 2.5,-1.12 2.5,-2.5 z"
         style="fill:#313131;stroke-width:0.5"
         id="path17" /><path
         d="m 130.135,71.135 h -4.27 c -2.76,0 -5,-2.24 -5,-5 v -4.27 c 0,-2.76 2.24,-5 5,-5 h 4.27 c 2.76,0 5,2.24 5,5 v 4.27 c 0,2.76 -2.24,5 -5,5 z"
         style="fill:#d5d5d5;stroke:#282828;stroke-width:1.25px"
         id="path18" /></g><g
       id="g21"
       style="stroke-width:0.5"><path
         d="m 160,101 v 54 c 0,2.76 -2.24,5 -5,5 h -54 c -2.76,0 -5,-2.24 -5,-5 v -54 c 0,-2.76 2.24,-5 5,-5 h 54 c 2.76,0 5,2.24 5,5 z"
         style="fill:#171717;stroke-width:0.5"
         id="path19" /><path
         d="m 160,101 v 54 c 0,2.76 -2.24,5 -5,5 h -54 c -2.76,0 -5,-2.24 -5,-5 v -54 c 0,-2.76 2.24,-5 5,-5 h 54 c 2.76,0 5,2.24 5,5 z m -2.5,0 c 0,-1.38 -1.12,-2.5 -2.5,-2.5 h -54 c -1.38,0 -2.5,1.12 -2.5,2.5 v 54 c 0,1.38 1.12,2.5 2.5,2.5 h 54 c 1.38,0 2.5,-1.12 2.5,-2.5 z"
         style="fill:#313131;stroke-width:0.5"
         id="path20" /><path
         d="m 130.135,135.135 h -4.27 c -2.76,0 -5,-2.24 -5,-5 v -4.27 c 0,-2.76 2.24,-5 5,-5 h 4.27 c 2.76,0 5,2.24 5,5 v 4.27 c 0,2.76 -2.24,5 -5,5 z"
         style="fill:#d5d5d5;stroke:#282828;stroke-width:1.25px"
         id="path21" /></g><g
       id="g24"
       style="stroke-width:0.5"><path
         d="m 160,165 v 54 c 0,2.76 -2.24,5 -5,5 h -54 c -2.76,0 -5,-2.24 -5,-5 v -54 c 0,-2.76 2.24,-5 5,-5 h 54 c 2.76,0 5,2.24 5,5 z"
         style="fill:#171717;stroke-width:0.5"
         id="path22" /><path
         d="m 160,165 v 54 c 0,2.76 -2.24,5 -5,5 h -54 c -2.76,0 -5,-2.24 -5,-5 v -54 c 0,-2.76 2.24,-5 5,-5 h 54 c 2.76,0 5,2.24 5,5 z m -2.5,0 c 0,-1.38 -1.12,-2.5 -2.5,-2.5 h -54 c -1.38,0 -2.5,1.12 -2.5,2.5 v 54 c 0,1.38 1.12,2.5 2.5,2.5 h 54 c 1.38,0 2.5,-1.12 2.5,-2.5 z"
         style="fill:#313131;stroke-width:0.5"
         id="path23" /><path
         d="m 130.135,199.135 h -4.27 c -2.76,0 -5,-2.24 -5,-5 v -4.27 c 0,-2.76 2.24,-5 5,-5 h 4.27 c 2.76,0 5,2.24 5,5 v 4.27 c 0,2.76 -2.24,5 -5,5 z"
         style="fill:#d5d5d5;stroke:#282828;stroke-width:1.25px"
         id="path24" /></g><g
       id="g27"
       style="stroke-width:0.5"><path
         d="m 160,229 v 54 c 0,2.76 -2.24,5 -5,5 h -54 c -2.76,0 -5,-2.24 -5,-5 v -54 c 0,-2.76 2.24,-5 5,-5 h 54 c 2.76,0 5,2.24 5,5 z"
         style="fill:#171717;stroke-width:0.5"
         id="path25" /><path
         d="m 160,229 v 54 c 0,2.76 -2.24,5 -5,5 h -54 c -2.76,0 -5,-2.24 -5,-5 v -54 c 0,-2.76 2.24,-5 5,-5 h 54 c 2.76,0 5,2.24 5,5 z m -2.5,0 c 0,-1.38 -1.12,-2.5 -2.5,-2.5 h -54 c -1.38,0 -2.5,1.12 -2.5,2.5 v 54 c 0,1.38 1.12,2.5 2.5,2.5 h 54 c 1.38,0 2.5,-1.12 2.5,-2.5 z"
         style="fill:#313131;stroke-width:0.5"
         id="path26" /><path
         d="m 130.135,263.135 h -4.27 c -2.76,0 -5,-2.24 -5,-5 v -4.27 c 0,-2.76 2.24,-5 5,-5 h 4.27 c 2.76,0 5,2.24 5,5 v 4.27 c 0,2.76 -2.24,5 -5,5 z"
         style="fill:#d5d5d5;stroke:#282828;stroke-width:1.25px"
         id="path27" /></g><g
       id="g30"
       style="stroke-width:0.5"><path
         d="m 160,293 v 54 c 0,2.76 -2.24,5 -5,5 h -54 c -2.76,0 -5,-2.24 -5,-5 v -54 c 0,-2.76 2.24,-5 5,-5 h 54 c 2.76,0 5,2.24 5,5 z"
         style="fill:#171717;stroke-width:0.5"
         id="path28" /><path
         d="m 160,293 v 54 c 0,2.76 -2.24,5 -5,5 h -54 c -2.76,0 -5,-2.24 -5,-5 v -54 c 0,-2.76 2.24,-5 5,-5 h 54 c 2.76,0 5,2.24 5,5 z m -2.5,0 c 0,-1.38 -1.12,-2.5 -2.5,-2.5 h -54 c -1.38,0 -2.5,1.12 -2.5,2.5 v 54 c 0,1.38 1.12,2.5 2.5,2.5 h 54 c 1.38,0 2.5,-1.12 2.5,-2.5 z"
         style="fill:#313131;stroke-width:0.5"
         id="path29" /><path
         d="m 130.135,327.135 h -4.27 c -2.76,0 -5,-2.24 -5,-5 v -4.27 c 0,-2.76 2.24,-5 5,-5 h 4.27 c 2.76,0 5,2.24 5,5 v 4.27 c 0,2.76 -2.24,5 -5,5 z"
         style="fill:#d5d5d5;stroke:#282828;stroke-width:1.25px"
         id="path30" /></g><g
       id="g33"
       style="stroke-width:0.5"><path
         d="m 224,37 v 54 c 0,2.76 -2.24,5 -5,5 h -54 c -2.76,0 -5,-2.24 -5,-5 V 37 c 0,-2.76 2.24,-5 5,-5 h 54 c 2.76,0 5,2.24 5,5 z"
         style="fill:#171717;stroke-width:0.5"
         id="path31" /><path
         d="m 224,37 v 54 c 0,2.76 -2.24,5 -5,5 h -54 c -2.76,0 -5,-2.24 -5,-5 V 37 c 0,-2.76 2.24,-5 5,-5 h 54 c 2.76,0 5,2.24 5,5 z m -2.5,0 c 0,-1.38 -1.12,-2.5 -2.5,-2.5 h -54 c -1.38,0 -2.5,1.12 -2.5,2.5 v 54 c 0,1.38 1.12,2.5 2.5,2.5 h 54 c 1.38,0 2.5,-1.12 2.5,-2.5 z"
         style="fill:#313131;stroke-width:0.5"
         id="path32" /><path
         d="m 194.135,71.135 h -4.27 c -2.76,0 -5,-2.24 -5,-5 v -4.27 c 0,-2.76 2.24,-5 5,-5 h 4.27 c 2.76,0 5,2.24 5,5 v 4.27 c 0,2.76 -2.24,5 -5,5 z"
         style="fill:#d5d5d5;stroke:#282828;stroke-width:1.25px"
         id="path33" /></g><g
       id="g36"
       style="stroke-width:0.5"><path
         d="m 224,101 v 54 c 0,2.76 -2.24,5 -5,5 h -54 c -2.76,0 -5,-2.24 -5,-5 v -54 c 0,-2.76 2.24,-5 5,-5 h 54 c 2.76,0 5,2.24 5,5 z"
         style="fill:#171717;stroke-width:0.5"
         id="path34" /><path
         d="m 224,101 v 54 c 0,2.76 -2.24,5 -5,5 h -54 c -2.76,0 -5,-2.24 -5,-5 v -54 c 0,-2.76 2.24,-5 5,-5 h 54 c 2.76,0 5,2.24 5,5 z m -2.5,0 c 0,-1.38 -1.12,-2.5 -2.5,-2.5 h -54 c -1.38,0 -2.5,1.12 -2.5,2.5 v 54 c 0,1.38 1.12,2.5 2.5,2.5 h 54 c 1.38,0 2.5,-1.12 2.5,-2.5 z"
         style="fill:#313131;stroke-width:0.5"
         id="path35" /><path
         d="m 194.135,135.135 h -4.27 c -2.76,0 -5,-2.24 -5,-5 v -4.27 c 0,-2.76 2.24,-5 5,-5 h 4.27 c 2.76,0 5,2.24 5,5 v 4.27 c 0,2.76 -2.24,5 -5,5 z"
         style="fill:#d5d5d5;stroke:#282828;stroke-width:1.25px"
         id="path36" /></g><g
       id="g39"
       style="stroke-width:0.5"><path
         d="m 224,165 v 54 c 0,2.76 -2.24,5 -5,5 h -54 c -2.76,0 -5,-2.24 -5,-5 v -54 c 0,-2.76 2.24,-5 5,-5 h 54 c 2.76,0 5,2.24 5,5 z"
         style="fill:#171717;stroke-width:0.5"
         id="path37" /><path
         d="m 224,165 v 54 c 0,2.76 -2.24,5 -5,5 h -54 c -2.76,0 -5,-2.24 -5,-5 v -54 c 0,-2.76 2.24,-5 5,-5 h 54 c 2.76,0 5,2.24 5,5 z m -2.5,0 c 0,-1.38 -1.12,-2.5 -2.5,-2.5 h -54 c -1.38,0 -2.5,1.12 -2.5,2.5 v 54 c 0,1.38 1.12,2.5 2.5,2.5 h 54 c 1.38,0 2.5,-1.12 2.5,-2.5 z"
         style="fill:#313131;stroke-width:0.5"
         id="path38" /><path
         d="m 194.135,199.135 h -4.27 c -2.76,0 -5,-2.24 -5,-5 v -4.27 c 0,-2.76 2.24,-5 5,-5 h 4.27 c 2.76,0 5,2.24 5,5 v 4.27 c 0,2.76 -2.24,5 -5,5 z"
         style="fill:#d5d5d5;stroke:#282828;stroke-width:1.25px"
         id="path39" /></g><g
       id="g42"
       style="stroke-width:0.5"><path
         d="m 224,229 v 54 c 0,2.76 -2.24,5 -5,5 h -54 c -2.76,0 -5,-2.24 -5,-5 v -54 c 0,-2.76 2.24,-5 5,-5 h 54 c 2.76,0 5,2.24 5,5 z"
         style="fill:#171717;stroke-width:0.5"
         id="path40" /><path
         d="m 224,229 v 54 c 0,2.76 -2.24,5 -5,5 h -54 c -2.76,0 -5,-2.24 -5,-5 v -54 c 0,-2.76 2.24,-5 5,-5 h 54 c 2.76,0 5,2.24 5,5 z m -2.5,0 c 0,-1.38 -1.12,-2.5 -2.5,-2.5 h -54 c -1.38,0 -2.5,1.12 -2.5,2.5 v 54 c 0,1.38 1.12,2.5 2.5,2.5 h 54 c 1.38,0 2.5,-1.12 2.5,-2.5 z"
         style="fill:#313131;stroke-width:0.5"
         id="path41" /><path
         d="m 194.135,263.135 h -4.27 c -2.76,0 -5,-2.24 -5,-5 v -4.27 c 0,-2.76 2.24,-5 5,-5 h 4.27 c 2.76,0 5,2.24 5,5 v 4.27 c 0,2.76 -2.24,5 -5,5 z"
         style="fill:#d5d5d5;stroke:#282828;stroke-width:1.25px"
         id="path42" /></g><g
       id="g45"
       style="stroke-width:0.5"><path
         d="m 224,293 v 54 c 0,2.76 -2.24,5 -5,5 h -54 c -2.76,0 -5,-2.24 -5,-5 v -54 c 0,-2.76 2.24,-5 5,-5 h 54 c 2.76,0 5,2.24 5,5 z"
         style="fill:#171717;stroke-width:0.5"
         id="path43" /><path
         d="m 224,293 v 54 c 0,2.76 -2.24,5 -5,5 h -54 c -2.76,0 -5,-2.24 -5,-5 v -54 c 0,-2.76 2.24,-5 5,-5 h 54 c 2.76,0 5,2.24 5,5 z m -2.5,0 c 0,-1.38 -1.12,-2.5 -2.5,-2.5 h -54 c -1.38,0 -2.5,1.12 -2.5,2.5 v 54 c 0,1.38 1.12,2.5 2.5,2.5 h 54 c 1.38,0 2.5,-1.12 2.5,-2.5 z"
         style="fill:#313131;stroke-width:0.5"
         id="path44" /><path
         d="m 194.135,327.135 h -4.27 c -2.76,0 -5,-2.24 -5,-5 v -4.27 c 0,-2.76 2.24,-5 5,-5 h 4.27 c 2.76,0 5,2.24 5,5 v 4.27 c 0,2.76 -2.24,5 -5,5 z"
         style="fill:#d5d5d5;stroke:#282828;stroke-width:1.25px"
         id="path45" /></g><g
       id="g48"
       style="stroke-width:0.5"><path
         d="m 288,37 v 54 c 0,2.76 -2.24,5 -5,5 h -54 c -2.76,0 -5,-2.24 -5,-5 V 37 c 0,-2.76 2.24,-5 5,-5 h 54 c 2.76,0 5,2.24 5,5 z"
         style="fill:#171717;stroke-width:0.5"
         id="path46" /><path
         d="m 288,37 v 54 c 0,2.76 -2.24,5 -5,5 h -54 c -2.76,0 -5,-2.24 -5,-5 V 37 c 0,-2.76 2.24,-5 5,-5 h 54 c 2.76,0 5,2.24 5,5 z m -2.5,0 c 0,-1.38 -1.12,-2.5 -2.5,-2.5 h -54 c -1.38,0 -2.5,1.12 -2.5,2.5 v 54 c 0,1.38 1.12,2.5 2.5,2.5 h 54 c 1.38,0 2.5,-1.12 2.5,-2.5 z"
         style="fill:#313131;stroke-width:0.5"
         id="path47" /><path
         d="m 258.135,71.135 h -4.27 c -2.76,0 -5,-2.24 -5,-5 v -4.27 c 0,-2.76 2.24,-5 5,-5 h 4.27 c 2.76,0 5,2.24 5,5 v 4.27 c 0,2.76 -2.24,5 -5,5 z"
         style="fill:#d5d5d5;stroke:#282828;stroke-width:1.25px"
         id="path48" /></g><g
       id="g51"
       style="stroke-width:0.5"><path
         d="m 288,101 v 54 c 0,2.76 -2.24,5 -5,5 h -54 c -2.76,0 -5,-2.24 -5,-5 v -54 c 0,-2.76 2.24,-5 5,-5 h 54 c 2.76,0 5,2.24 5,5 z"
         style="fill:#171717;stroke-width:0.5"
         id="path49" /><path
         d="m 288,101 v 54 c 0,2.76 -2.24,5 -5,5 h -54 c -2.76,0 -5,-2.24 -5,-5 v -54 c 0,-2.76 2.24,-5 5,-5 h 54 c 2.76,0 5,2.24 5,5 z m -2.5,0 c 0,-1.38 -1.12,-2.5 -2.5,-2.5 h -54 c -1.38,0 -2.5,1.12 -2.5,2.5 v 54 c 0,1.38 1.12,2.5 2.5,2.5 h 54 c 1.38,0 2.5,-1.12 2.5,-2.5 z"
         style="fill:#313131;stroke-width:0.5"
         id="path50" /><path
         d="m 258.135,135.135 h -4.27 c -2.76,0 -5,-2.24 -5,-5 v -4.27 c 0,-2.76 2.24,-5 5,-5 h 4.27 c 2.76,0 5,2.24 5,5 v 4.27 c 0,2.76 -2.24,5 -5,5 z"
         style="fill:#d5d5d5;stroke:#282828;stroke-width:1.25px"
         id="path51" /></g><g
       id="g54"
       style="stroke-width:0.5"><path
         d="m 288,165 v 54 c 0,2.76 -2.24,5 -5,5 h -54 c -2.76,0 -5,-2.24 -5,-5 v -54 c 0,-2.76 2.24,-5 5,-5 h 54 c 2.76,0 5,2.24 5,5 z"
         style="fill:#171717;stroke-width:0.5"
         id="path52" /><path
         d="m 288,165 v 54 c 0,2.76 -2.24,5 -5,5 h -54 c -2.76,0 -5,-2.24 -5,-5 v -54 c 0,-2.76 2.24,-5 5,-5 h 54 c 2.76,0 5,2.24 5,5 z m -2.5,0 c 0,-1.38 -1.12,-2.5 -2.5,-2.5 h -54 c -1.38,0 -2.5,1.12 -2.5,2.5 v 54 c 0,1.38 1.12,2.5 2.5,2.5 h 54 c 1.38,0 2.5,-1.12 2.5,-2.5 z"
         style="fill:#313131;stroke-width:0.5"
         id="path53" /><path
         d="m 258.135,199.135 h -4.27 c -2.76,0 -5,-2.24 -5,-5 v -4.27 c 0,-2.76 2.24,-5 5,-5 h 4.27 c 2.76,0 5,2.24 5,5 v 4.27 c 0,2.76 -2.24,5 -5,5 z"
         style="fill:#d5d5d5;stroke:#282828;stroke-width:1.25px"
         id="path54" /></g><g
       id="g57"
       style="stroke-width:0.5"><path
         d="m 288,229 v 54 c 0,2.76 -2.24,5 -5,5 h -54 c -2.76,0 -5,-2.24 -5,-5 v -54 c 0,-2.76 2.24,-5 5,-5 h 54 c 2.76,0 5,2.24 5,5 z"
         style="fill:#171717;stroke-width:0.5"
         id="path55" /><path
         d="m 288,229 v 54 c 0,2.76 -2.24,5 -5,5 h -54 c -2.76,0 -5,-2.24 -5,-5 v -54 c 0,-2.76 2.24,-5 5,-5 h 54 c 2.76,0 5,2.24 5,5 z m -2.5,0 c 0,-1.38 -1.12,-2.5 -2.5,-2.5 h -54 c -1.38,0 -2.5,1.12 -2.5,2.5 v 54 c 0,1.38 1.12,2.5 2.5,2.5 h 54 c 1.38,0 2.5,-1.12 2.5,-2.5 z"
         style="fill:#313131;stroke-width:0.5"
         id="path56" /><path
         d="m 258.135,263.135 h -4.27 c -2.76,0 -5,-2.24 -5,-5 v -4.27 c 0,-2.76 2.24,-5 5,-5 h 4.27 c 2.76,0 5,2.24 5,5 v 4.27 c 0,2.76 -2.24,5 -5,5 z"
         style="fill:#d5d5d5;stroke:#282828;stroke-width:1.25px"
         id="path57" /></g><g
       id="g60"
       style="stroke-width:0.5"><path
         d="m 288,293 v 54 c 0,2.76 -2.24,5 -5,5 h -54 c -2.76,0 -5,-2.24 -5,-5 v -54 c 0,-2.76 2.24,-5 5,-5 h 54 c 2.76,0 5,2.24 5,5 z"
         style="fill:#171717;stroke-width:0.5"
         id="path58" /><path
         d="m 288,293 v 54 c 0,2.76 -2.24,5 -5,5 h -54 c -2.76,0 -5,-2.24 -5,-5 v -54 c 0,-2.76 2.24,-5 5,-5 h 54 c 2.76,0 5,2.24 5,5 z m -2.5,0 c 0,-1.38 -1.12,-2.5 -2.5,-2.5 h -54 c -1.38,0 -2.5,1.12 -2.5,2.5 v 54 c 0,1.38 1.12,2.5 2.5,2.5 h 54 c 1.38,0 2.5,-1.12 2.5,-2.5 z"
         style="fill:#313131;stroke-width:0.5"
         id="path59" /><path
         d="m 258.135,327.135 h -4.27 c -2.76,0 -5,-2.24 -5,-5 v -4.27 c 0,-2.76 2.24,-5 5,-5 h 4.27 c 2.76,0 5,2.24 5,5 v 4.27 c 0,2.76 -2.24,5 -5,5 z"
         style="fill:#d5d5d5;stroke:#282828;stroke-width:1.25px"
         id="path60" /></g><g
       id="g63"
       style="stroke-width:0.5"><path
         d="m 352,37 v 54 c 0,2.76 -2.24,5 -5,5 h -54 c -2.76,0 -5,-2.24 -5,-5 V 37 c 0,-2.76 2.24,-5 5,-5 h 54 c 2.76,0 5,2.24 5,5 z"
         style="fill:#171717;stroke-width:0.5"
         id="path61" /><path
         d="m 352,37 v 54 c 0,2.76 -2.24,5 -5,5 h -54 c -2.76,0 -5,-2.24 -5,-5 V 37 c 0,-2.76 2.24,-5 5,-5 h 54 c 2.76,0 5,2.24 5,5 z m -2.5,0 c 0,-1.38 -1.12,-2.5 -2.5,-2.5 h -54 c -1.38,0 -2.5,1.12 -2.5,2.5 v 54 c 0,1.38 1.12,2.5 2.5,2.5 h 54 c 1.38,0 2.5,-1.12 2.5,-2.5 z"
         style="fill:#313131;stroke-width:0.5"
         id="path62" /><path
         d="m 322.135,71.135 h -4.27 c -2.76,0 -5,-2.24 -5,-5 v -4.27 c 0,-2.76 2.24,-5 5,-5 h 4.27 c 2.76,0 5,2.24 5,5 v 4.27 c 0,2.76 -2.24,5 -5,5 z"
         style="fill:#d5d5d5;stroke:#282828;stroke-width:1.25px"
         id="path63" /></g><g
       id="g66"
       style="stroke-width:0.5"><path
         d="m 352,101 v 54 c 0,2.76 -2.24,5 -5,5 h -54 c -2.76,0 -5,-2.24 -5,-5 v -54 c 0,-2.76 2.24,-5 5,-5 h 54 c 2.76,0 5,2.24 5,5 z"
         style="fill:#171717;stroke-width:0.5"
         id="path64" /><path
         d="m 352,101 v 54 c 0,2.76 -2.24,5 -5,5 h -54 c -2.76,0 -5,-2.24 -5,-5 v -54 c 0,-2.76 2.24,-5 5,-5 h 54 c 2.76,0 5,2.24 5,5 z m -2.5,0 c 0,-1.38 -1.12,-2.5 -2.5,-2.5 h -54 c -1.38,0 -2.5,1.12 -2.5,2.5 v 54 c 0,1.38 1.12,2.5 2.5,2.5 h 54 c 1.38,0 2.5,-1.12 2.5,-2.5 z"
         style="fill:#313131;stroke-width:0.5"
         id="path65" /><path
         d="m 322.135,135.135 h -4.27 c -2.76,0 -5,-2.24 -5,-5 v -4.27 c 0,-2.76 2.24,-5 5,-5 h 4.27 c 2.76,0 5,2.24 5,5 v 4.27 c 0,2.76 -2.24,5 -5,5 z"
         style="fill:#d5d5d5;stroke:#282828;stroke-width:1.25px"
         id="path66" /></g><g
       id="g69"
       style="stroke-width:0.5"><path
         d="m 352,165 v 54 c 0,2.76 -2.24,5 -5,5 h -54 c -2.76,0 -5,-2.24 -5,-5 v -54 c 0,-2.76 2.24,-5 5,-5 h 54 c 2.76,0 5,2.24 5,5 z"
         style="fill:#171717;stroke-width:0.5"
         id="path67" /><path
         d="m 352,165 v 54 c 0,2.76 -2.24,5 -5,5 h -54 c -2.76,0 -5,-2.24 -5,-5 v -54 c 0,-2.76 2.24,-5 5,-5 h 54 c 2.76,0 5,2.24 5,5 z m -2.5,0 c 0,-1.38 -1.12,-2.5 -2.5,-2.5 h -54 c -1.38,0 -2.5,1.12 -2.5,2.5 v 54 c 0,1.38 1.12,2.5 2.5,2.5 h 54 c 1.38,0 2.5,-1.12 2.5,-2.5 z"
         style="fill:#313131;stroke-width:0.5"
         id="path68" /><path
         d="m 322.135,199.135 h -4.27 c -2.76,0 -5,-2.24 -5,-5 v -4.27 c 0,-2.76 2.24,-5 5,-5 h 4.27 c 2.76,0 5,2.24 5,5 v 4.27 c 0,2.76 -2.24,5 -5,5 z"
         style="fill:#d5d5d5;stroke:#282828;stroke-width:1.25px"
         id="path69" /></g><g
       id="g72"
       style="stroke-width:0.5"><path
         d="m 352,229 v 54 c 0,2.76 -2.24,5 -5,5 h -54 c -2.76,0 -5,-2.24 -5,-5 v -54 c 0,-2.76 2.24,-5 5,-5 h 54 c 2.76,0 5,2.24 5,5 z"
         style="fill:#171717;stroke-width:0.5"
         id="path70" /><path
         d="m 352,229 v 54 c 0,2.76 -2.24,5 -5,5 h -54 c -2.76,0 -5,-2.24 -5,-5 v -54 c 0,-2.76 2.24,-5 5,-5 h 54 c 2.76,0 5,2.24 5,5 z m -2.5,0 c 0,-1.38 -1.12,-2.5 -2.5,-2.5 h -54 c -1.38,0 -2.5,1.12 -2.5,2.5 v 54 c 0,1.38 1.12,2.5 2.5,2.5 h 54 c 1.38,0 2.5,-1.12 2.5,-2.5 z"
         style="fill:#313131;stroke-width:0.5"
         id="path71" /><path
         d="m 322.135,263.135 h -4.27 c -2.76,0 -5,-2.24 -5,-5 v -4.27 c 0,-2.76 2.24,-5 5,-5 h 4.27 c 2.76,0 5,2.24 5,5 v 4.27 c 0,2.76 -2.24,5 -5,5 z"
         style="fill:#d5d5d5;stroke:#282828;stroke-width:1.25px"
         id="path72" /></g><g
       id="g75"
       style="stroke-width:0.5"><path
         d="m 352,293 v 54 c 0,2.76 -2.24,5 -5,5 h -54 c -2.76,0 -5,-2.24 -5,-5 v -54 c 0,-2.76 2.24,-5 5,-5 h 54 c 2.76,0 5,2.24 5,5 z"
         style="fill:#171717;stroke-width:0.5"
         id="path73" /><path
         d="m 352,293 v 54 c 0,2.76 -2.24,5 -5,5 h -54 c -2.76,0 -5,-2.24 -5,-5 v -54 c 0,-2.76 2.24,-5 5,-5 h 54 c 2.76,0 5,2.24 5,5 z m -2.5,0 c 0,-1.38 -1.12,-2.5 -2.5,-2.5 h -54 c -1.38,0 -2.5,1.12 -2.5,2.5 v 54 c 0,1.38 1.12,2.5 2.5,2.5 h 54 c 1.38,0 2.5,-1.12 2.5,-2.5 z"
         style="fill:#313131;stroke-width:0.5"
         id="path74" /><path
         d="m 322.135,327.135 h -4.27 c -2.76,0 -5,-2.24 -5,-5 v -4.27 c 0,-2.76 2.24,-5 5,-5 h 4.27 c 2.76,0 5,2.24 5,5 v 4.27 c 0,2.76 -2.24,5 -5,5 z"
         style="fill:#d5d5d5;stroke:#282828;stroke-width:1.25px"
         id="path75" /></g></g><g
     id="g109"
     transform="scale(2)"
     style="stroke-width:0.5"><g
       id="g78"
       style="stroke-width:0.5"><path
         d="m 96,101 v 54 c 0,2.76 -2.24,5 -5,5 H 37 c -2.76,0 -5,-2.24 -5,-5 v -54 c 0,-2.76 2.24,-5 5,-5 h 54 c 2.76,0 5,2.24 5,5 z"
         style="fill:#ffffff;stroke-width:0.5"
         id="path76" /><path
         d="m 96,101 v 54 c 0,2.76 -2.24,5 -5,5 H 37 c -2.76,0 -5,-2.24 -5,-5 v -54 c 0,-2.76 2.24,-5 5,-5 h 54 c 2.76,0 5,2.24 5,5 z m -2.5,0 c 0,-1.38 -1.12,-2.5 -2.5,-2.5 H 37 c -1.38,0 -2.5,1.12 -2.5,2.5 v 54 c 0,1.38 1.12,2.5 2.5,2.5 h 54 c 1.38,0 2.5,-1.12 2.5,-2.5 z"
         style="fill:#e3e3e3;stroke-width:0.5"
         id="path77" /><path
         d="m 70.555,131.536 -3.019,3.019 c -1.952,1.951 -5.12,1.951 -7.072,0 l -3.019,-3.019 c -1.951,-1.952 -1.951,-5.12 0,-7.072 l 3.019,-3.019 c 1.952,-1.951 5.12,-1.951 7.072,0 l 3.019,3.019 c 1.951,1.952 1.951,5.12 0,7.072 z"
         style="fill:#2b2b2b;stroke:#e3e3e3;stroke-width:1.25px"
         id="path78" /></g><g
       id="g81"
       style="stroke-width:0.5"><path
         d="m 96,165 v 54 c 0,2.76 -2.24,5 -5,5 H 37 c -2.76,0 -5,-2.24 -5,-5 v -54 c 0,-2.76 2.24,-5 5,-5 h 54 c 2.76,0 5,2.24 5,5 z"
         style="fill:#ffffff;stroke-width:0.5"
         id="path79" /><path
         d="m 96,165 v 54 c 0,2.76 -2.24,5 -5,5 H 37 c -2.76,0 -5,-2.24 -5,-5 v -54 c 0,-2.76 2.24,-5 5,-5 h 54 c 2.76,0 5,2.24 5,5 z m -2.5,0 c 0,-1.38 -1.12,-2.5 -2.5,-2.5 H 37 c -1.38,0 -2.5,1.12 -2.5,2.5 v 54 c 0,1.38 1.12,2.5 2.5,2.5 h 54 c 1.38,0 2.5,-1.12 2.5,-2.5 z"
         style="fill:#e3e3e3;stroke-width:0.5"
         id="path80" /><path
         d="m 70.555,195.536 -3.019,3.019 c -1.952,1.951 -5.12,1.951 -7.072,0 l -3.019,-3.019 c -1.951,-1.952 -1.951,-5.12 0,-7.072 l 3.019,-3.019 c 1.952,-1.951 5.12,-1.951 7.072,0 l 3.019,3.019 c 1.951,1.952 1.951,5.12 0,7.072 z"
         style="fill:#2b2b2b;stroke:#e3e3e3;stroke-width:1.25px"
         id="path81" /></g><g
       id="g84"
       style="stroke-width:0.5"><path
         d="m 96,293 v 54 c 0,2.76 -2.24,5 -5,5 H 37 c -2.76,0 -5,-2.24 -5,-5 v -54 c 0,-2.76 2.24,-5 5,-5 h 54 c 2.76,0 5,2.24 5,5 z"
         style="fill:#ffffff;stroke-width:0.5"
         id="path82" /><path
         d="m 96,293 v 54 c 0,2.76 -2.24,5 -5,5 H 37 c -2.76,0 -5,-2.24 -5,-5 v -54 c 0,-2.76 2.24,-5 5,-5 h 54 c 2.76,0 5,2.24 5,5 z m -2.5,0 c 0,-1.38 -1.12,-2.5 -2.5,-2.5 H 37 c -1.38,0 -2.5,1.12 -2.5,2.5 v 54 c 0,1.38 1.12,2.5 2.5,2.5 h 54 c 1.38,0 2.5,-1.12 2.5,-2.5 z"
         style="fill:#e3e3e3;stroke-width:0.5"
         id="path83" /><path
         d="m 70.555,323.536 -3.019,3.019 c -1.952,1.951 -5.12,1.951 -7.072,0 l -3.019,-3.019 c -1.951,-1.952 -1.951,-5.12 0,-7.072 l 3.019,-3.019 c 1.952,-1.951 5.12,-1.951 7.072,0 l 3.019,3.019 c 1.951,1.952 1.951,5.12 0,7.072 z"
         style="fill:#2b2b2b;stroke:#e3e3e3;stroke-width:1.25px"
         id="path84" /></g><g
       id="g87"
       style="stroke-width:0.5"><path
         d="m 224,229 v 54 c 0,2.76 -2.24,5 -5,5 h -54 c -2.76,0 -5,-2.24 -5,-5 v -54 c 0,-2.76 2.24,-5 5,-5 h 54 c 2.76,0 5,2.24 5,5 z"
         style="fill:#ffffff;stroke-width:0.5"
         id="path85" /><path
         d="m 224,229 v 54 c 0,2.76 -2.24,5 -5,5 h -54 c -2.76,0 -5,-2.24 -5,-5 v -54 c 0,-2.76 2.24,-5 5,-5 h 54 c 2.76,0 5,2.24 5,5 z m -2.5,0 c 0,-1.38 -1.12,-2.5 -2.5,-2.5 h -54 c -1.38,0 -2.5,1.12 -2.5,2.5 v 54 c 0,1.38 1.12,2.5 2.5,2.5 h 54 c 1.38,0 2.5,-1.12 2.5,-2.5 z"
         style="fill:#e3e3e3;stroke-width:0.5"
         id="path86" /><path
         d="m 198.555,259.536 -3.019,3.019 c -1.952,1.951 -5.12,1.951 -7.072,0 l -3.019,-3.019 c -1.951,-1.952 -1.951,-5.12 0,-7.072 l 3.019,-3.019 c 1.952,-1.951 5.12,-1.951 7.072,0 l 3.019,3.019 c 1.951,1.952 1.951,5.12 0,7.072 z"
         style="fill:#2b2b2b;stroke:#e3e3e3;stroke-width:1.25px"
         id="path87" /></g><g
       id="g90"
       style="stroke-width:0.5"><path
         d="m 160,165 v 54 c 0,2.76 -2.24,5 -5,5 h -54 c -2.76,0 -5,-2.24 -5,-5 v -54 c 0,-2.76 2.24,-5 5,-5 h 54 c 2.76,0 5,2.24 5,5 z"
         style="fill:#ffffff;stroke-width:0.5"
         id="path88" /><path
         d="m 160,165 v 54 c 0,2.76 -2.24,5 -5,5 h -54 c -2.76,0 -5,-2.24 -5,-5 v -54 c 0,-2.76 2.24,-5 5,-5 h 54 c 2.76,0 5,2.24 5,5 z m -2.5,0 c 0,-1.38 -1.12,-2.5 -2.5,-2.5 h -54 c -1.38,0 -2.5,1.12 -2.5,2.5 v 54 c 0,1.38 1.12,2.5 2.5,2.5 h 54 c 1.38,0 2.5,-1.12 2.5,-2.5 z"
         style="fill:#e3e3e3;stroke-width:0.5"
         id="path89" /><path
         d="m 134.555,195.536 -3.019,3.019 c -1.952,1.951 -5.12,1.951 -7.072,0 l -3.019,-3.019 c -1.951,-1.952 -1.951,-5.12 0,-7.072 l 3.019,-3.019 c 1.952,-1.951 5.12,-1.951 7.072,0 l 3.019,3.019 c 1.951,1.952 1.951,5.12 0,7.072 z"
         style="fill:#2b2b2b;stroke:#e3e3e3;stroke-width:1.25px"
         id="path90" /></g><g
       id="g93"
       style="stroke-width:0.5"><path
         d="m 224,293 v 54 c 0,2.76 -2.24,5 -5,5 h -54 c -2.76,0 -5,-2.24 -5,-5 v -54 c 0,-2.76 2.24,-5 5,-5 h 54 c 2.76,0 5,2.24 5,5 z"
         style="fill:#ffffff;stroke-width:0.5"
         id="path91" /><path
         d="m 224,293 v 54 c 0,2.76 -2.24,5 -5,5 h -54 c -2.76,0 -5,-2.24 -5,-5 v -54 c 0,-2.76 2.24,-5 5,-5 h 54 c 2.76,0 5,2.24 5,5 z m -2.5,0 c 0,-1.38 -1.12,-2.5 -2.5,-2.5 h -54 c -1.38,0 -2.5,1.12 -2.5,2.5 v 54 c 0,1.38 1.12,2.5 2.5,2.5 h 54 c 1.38,0 2.5,-1.12 2.5,-2.5 z"
         style="fill:#e3e3e3;stroke-width:0.5"
         id="path92" /><path
         d="m 198.555,323.536 -3.019,3.019 c -1.952,1.951 -5.12,1.951 -7.072,0 l -3.019,-3.019 c -1.951,-1.952 -1.951,-5.12 0,-7.072 l 3.019,-3.019 c 1.952,-1.951 5.12,-1.951 7.072,0 l 3.019,3.019 c 1.951,1.952 1.951,5.12 0,7.072 z"
         style="fill:#2b2b2b;stroke:#e3e3e3;stroke-width:1.25px"
         id="path93" /></g><g
       id="g96"
       style="stroke-width:0.5"><path
         d="m 224,101 v 54 c 0,2.76 -2.24,5 -5,5 h -54 c -2.76,0 -5,-2.24 -5,-5 v -54 c 0,-2.76 2.24,-5 5,-5 h 54 c 2.76,0 5,2.24 5,5 z"
         style="fill:#ffffff;stroke-width:0.5"
         id="path94" /><path
         d="m 224,101 v 54 c 0,2.76 -2.24,5 -5,5 h -54 c -2.76,0 -5,-2.24 -5,-5 v -54 c 0,-2.76 2.24,-5 5,-5 h 54 c 2.76,0 5,2.24 5,5 z m -2.5,0 c 0,-1.38 -1.12,-2.5 -2.5,-2.5 h -54 c -1.38,0 -2.5,1.12 -2.5,2.5 v 54 c 0,1.38 1.12,2.5 2.5,2.5 h 54 c 1.38,0 2.5,-1.12 2.5,-2.5 z"
         style="fill:#e3e3e3;stroke-width:0.5"
         id="path95" /><path
         d="m 198.555,131.536 -3.019,3.019 c -1.952,1.951 -5.12,1.951 -7.072,0 l -3.019,-3.019 c -1.951,-1.952 -1.951,-5.12 0,-7.072 l 3.019,-3.019 c 1.952,-1.951 5.12,-1.951 7.072,0 l 3.019,3.019 c 1.951,1.952 1.951,5.12 0,7.072 z"
         style="fill:#2b2b2b;stroke:#e3e3e3;stroke-width:1.25px"
         id="path96" /></g><g
       id="g99"
       style="stroke-width:0.5"><path
         d="m 288,165 v 54 c 0,2.76 -2.24,5 -5,5 h -54 c -2.76,0 -5,-2.24 -5,-5 v -54 c 0,-2.76 2.24,-5 5,-5 h 54 c 2.76,0 5,2.24 5,5 z"
         style="fill:#ffffff;stroke-width:0.5"
         id="path97" /><path
         d="m 288,165 v 54 c 0,2.76 -2.24,5 -5,5 h -54 c -2.76,0 -5,-2.24 -5,-5 v -54 c 0,-2.76 2.24,-5 5,-5 h 54 c 2.76,0 5,2.24 5,5 z m -2.5,0 c 0,-1.38 -1.12,-2.5 -2.5,-2.5 h -54 c -1.38,0 -2.5,1.12 -2.5,2.5 v 54 c 0,1.38 1.12,2.5 2.5,2.5 h 54 c 1.38,0 2.5,-1.12 2.5,-2.5 z"
         style="fill:#e3e3e3;stroke-width:0.5"
         id="path98" /><path
         d="m 262.555,195.536 -3.019,3.019 c -1.952,1.951 -5.12,1.951 -7.072,0 l -3.019,-3.019 c -1.951,-1.952 -1.951,-5.12 0,-7.072 l 3.019,-3.019 c 1.952,-1.951 5.12,-1.951 7.072,0 l 3.019,3.019 c 1.951,1.952 1.951,5.12 0,7.072 z"
         style="fill:#2b2b2b;stroke:#e3e3e3;stroke-width:1.25px"
         id="path99" /></g><g
       id="g102"
       style="stroke-width:0.5"><path
         d="m 352,229 v 54 c 0,2.76 -2.24,5 -5,5 h -54 c -2.76,0 -5,-2.24 -5,-5 v -54 c 0,-2.76 2.24,-5 5,-5 h 54 c 2.76,0 5,2.24 5,5 z"
         style="fill:#ffffff;stroke-width:0.5"
         id="path100" /><path
         d="m 352,229 v 54 c 0,2.76 -2.24,5 -5,5 h -54 c -2.76,0 -5,-2.24 -5,-5 v -54 c 0,-2.76 2.24,-5 5,-5 h 54 c 2.76,0 5,2.24 5,5 z m -2.5,0 c 0,-1.38 -1.12,-2.5 -2.5,-2.5 h -54 c -1.38,0 -2.5,1.12 -2.5,2.5 v 54 c 0,1.38 1.12,2.5 2.5,2.5 h 54 c 1.38,0 2.5,-1.12 2.5,-2.5 z"
         style="fill:#e3e3e3;stroke-width:0.5"
         id="path101" /><path
         d="m 326.555,259.536 -3.019,3.019 c -1.952,1.951 -5.12,1.951 -7.072,0 l -3.019,-3.019 c -1.951,-1.952 -1.951,-5.12 0,-7.072 l 3.019,-3.019 c 1.952,-1.951 5.12,-1.951 7.072,0 l 3.019,3.019 c 1.951,1.952 1.951,5.12 0,7.072 z"
         style="fill:#2b2b2b;stroke:#e3e3e3;stroke-width:1.25px"
         id="path102" /></g><g
       id="g105"
       style="stroke-width:0.5"><path
         d="m 352,293 v 54 c 0,2.76 -2.24,5 -5,5 h -54 c -2.76,0 -5,-2.24 -5,-5 v -54 c 0,-2.76 2.24,-5 5,-5 h 54 c 2.76,0 5,2.24 5,5 z"
         style="fill:#ffffff;stroke-width:0.5"
         id="path103" /><path
         d="m 352,293 v 54 c 0,2.76 -2.24,5 -5,5 h -54 c -2.76,0 -5,-2.24 -5,-5 v -54 c 0,-2.76 2.24,-5 5,-5 h 54 c 2.76,0 5,2.24 5,5 z m -2.5,0 c 0,-1.38 -1.12,-2.5 -2.5,-2.5 h -54 c -1.38,0 -2.5,1.12 -2.5,2.5 v 54 c 0,1.38 1.12,2.5 2.5,2.5 h 54 c 1.38,0 2.5,-1.12 2.5,-2.5 z"
         style="fill:#e3e3e3;stroke-width:0.5"
         id="path104" /><path
         d="m 326.555,323.536 -3.019,3.019 c -1.952,1.951 -5.12,1.951 -7.072,0 l -3.019,-3.019 c -1.951,-1.952 -1.951,-5.12 0,-7.072 l 3.019,-3.019 c 1.952,-1.951 5.12,-1.951 7.072,0 l 3.019,3.019 c 1.951,1.952 1.951,5.12 0,7.072 z"
         style="fill:#2b2b2b;stroke:#e3e3e3;stroke-width:1.25px"
         id="path105" /></g><g
       id="g108"
       style="stroke-width:0.5"><path
         d="m 352,37 v 54 c 0,2.76 -2.24,5 -5,5 h -54 c -2.76,0 -5,-2.24 -5,-5 V 37 c 0,-2.76 2.24,-5 5,-5 h 54 c 2.76,0 5,2.24 5,5 z"
         style="fill:#ffffff;stroke-width:0.5"
         id="path106" /><path
         d="m 352,37 v 54 c 0,2.76 -2.24,5 -5,5 h -54 c -2.76,0 -5,-2.24 -5,-5 V 37 c 0,-2.76 2.24,-5 5,-5 h 54 c 2.76,0 5,2.24 5,5 z m -2.5,0 c 0,-1.38 -1.12,-2.5 -2.5,-2.5 h -54 c -1.38,0 -2.5,1.12 -2.5,2.5 v 54 c 0,1.38 1.12,2.5 2.5,2.5 h 54 c 1.38,0 2.5,-1.12 2.5,-2.5 z"
         style="fill:#e3e3e3;stroke-width:0.5"
         id="path107" /><path
         d="m 326.555,67.536 -3.019,3.019 c -1.952,1.951 -5.12,1.951 -7.072,0 l -3.019,-3.019 c -1.951,-1.952 -1.951,-5.12 0,-7.072 l 3.019,-3.019 c 1.952,-1.951 5.12,-1.951 7.072,0 l 3.019,3.019 c 1.951,1.952 1.951,5.12 0,7.072 z"
         style="fill:#2b2b2b;stroke:#e3e3e3;stroke-width:1.25px"
         id="path108" /></g></g></svg>
