<?xml version="1.0" encoding="UTF-8" standalone="no"?>
<!-- Created with Inkscape (http://www.inkscape.org/) -->

<svg
   width="768"
   height="768"
   viewBox="0 0 203.2 203.2"
   version="1.1"
   id="svg1"
   sodipodi:docname="sprite_stage_all_in_one.svg"
   inkscape:version="1.3.2 (091e20e, 2023-11-25, custom)"
   xmlns:inkscape="http://www.inkscape.org/namespaces/inkscape"
   xmlns:sodipodi="http://sodipodi.sourceforge.net/DTD/sodipodi-0.dtd"
   xmlns="http://www.w3.org/2000/svg"
   xmlns:svg="http://www.w3.org/2000/svg">
  <sodipodi:namedview
     id="namedview1"
     pagecolor="#ffffff"
     bordercolor="#000000"
     borderopacity="0.25"
     inkscape:showpageshadow="2"
     inkscape:pageopacity="0.0"
     inkscape:pagecheckerboard="true"
     inkscape:deskcolor="#d1d1d1"
     inkscape:document-units="px"
     inkscape:zoom="0.52738496"
     inkscape:cx="396.29496"
     inkscape:cy="561.25984"
     inkscape:window-width="1440"
     inkscape:window-height="830"
     inkscape:window-x="-6"
     inkscape:window-y="-6"
     inkscape:window-maximized="1"
     inkscape:current-layer="layer1" />
  <defs
     id="defs1" />
  <g
     inkscape:label="Layer 1"
     inkscape:groupmode="layer"
     id="layer1">
    <path
       style="fill:#ffffff;stroke-width:0.264583"
       id="path1"
       d="m 21.768806,115.33289 c -0.06429,-0.58495 -0.175646,-1.16663 -0.192872,-1.75486 -0.245079,-8.36904 1.349781,-16.570801 3.241502,-24.692163 2.61912,-11.244156 4.918164,-18.089644 8.279661,-29.052157 1.652886,-4.174019 4.663027,-13.546597 8.297584,-17.526227 0.847323,-0.927769 2.342679,-2.168324 3.436197,-1.549508 1.118179,0.632772 0.193984,2.582507 0.563634,3.812992 8.684527,28.908909 -1.868755,-11.798266 6.270754,20.868976 1.844659,8.705805 3.254309,17.51321 3.95841,26.387975 0.144219,1.817796 0.355198,5.306213 0.160626,7.385465 -0.04406,0.470789 -0.210624,0.921937 -0.315936,1.382907 -2.048166,-0.34137 1.371729,1.10421 1.139327,0.71978 -0.60548,-1.00155 -1.812454,-1.481191 -2.716617,-2.224308 -1.321514,-1.08613 -2.620634,-2.199889 -3.960405,-3.263418 -4.298437,-3.412168 -5.488929,-4.191929 -9.969494,-7.425082 -2.789817,-2.025877 -5.668352,-3.926766 -8.466953,-5.940221 -0.485907,-0.349589 -3.591798,-2.44625 -4.123584,-3.4925 -0.574794,-1.130866 1.708372,-1.336013 1.850824,-1.38094 1.091139,-0.09183 2.178846,-0.245083 3.273422,-0.2755 7.643315,-0.212399 15.241971,1.052365 22.825395,1.788359 4.361984,0.212264 7.780936,-0.642779 11.090585,-3.702344 1.143346,-1.056952 2.263507,-2.179378 3.106316,-3.488603 1.266934,-1.96806 2.114773,-4.176276 3.172156,-6.264412 1.004663,-2.427745 2.009325,-4.855491 3.013988,-7.283236 0.874665,-2.281007 1.691547,-4.58502 2.623992,-6.843022 0.619487,-1.500145 2.408605,-2.847787 2.029531,-4.425918 -0.235558,-0.980651 -2.561328,-0.529791 -3.002013,0.377381 -1.12241,2.31054 -0.535966,5.110638 -0.899244,7.653554 -0.552074,3.864483 -1.230834,7.709805 -1.846249,11.564707 -0.541444,3.148317 -2.900556,15.66836 -2.984506,19.909211 -0.02442,1.23377 -0.420796,3.245921 0.753711,3.624495 6.632509,2.137836 9.009671,-4.609605 11.53314,-8.513281 1.894744,-2.93107 3.660214,-5.943716 5.490321,-8.915575 0.02106,-0.03594 8.762148,-14.973961 9.383254,-15.957211 0.900229,-1.425117 1.761087,-2.901958 2.908547,-4.136752 0.30084,-0.323734 1.67501,-0.551887 1.27462,-0.364816 -6.108542,2.854061 -3.202438,-0.565605 -5.514513,8.672656 -0.848339,2.769531 -1.696675,5.53906 -2.545014,8.308591 -0.858329,2.623293 -1.765567,5.231088 -2.574991,7.86988 -0.643334,2.097323 -1.329232,4.188913 -1.782336,6.335385 -0.369229,1.749131 -1.377543,5.690211 0.875096,7.219304 1.967677,1.335659 4.394986,1.818537 6.59248,2.727804 5.493918,-0.101756 10.978168,-0.866444 16.280838,-2.31956 2.416,-0.662069 5.21363,-1.574879 7.3082,-3.067666 0.76709,-0.546698 1.34734,-1.316773 2.021,-1.97516 0.43263,-0.668856 0.90962,-1.311021 1.29788,-2.006565 0.61153,-1.095513 1.35821,-3.023442 1.84248,-4.163492 1.00871,-2.374699 2.10494,-4.696433 3.24058,-7.012477 -2.65777,-1.414883 2.82965,-1.990775 2.02606,-2.826107 -0.66448,-0.690731 -2.12219,-1.68824 -2.7182,-0.937633 -0.80341,1.011793 0.37977,2.56326 0.40166,3.855043 0.0681,4.020127 -0.4469,7.648522 -0.87203,11.637198 -0.36501,2.569432 -0.76491,6.206307 -1.4903,8.846796 -0.0896,0.326085 -0.80336,0.800613 -0.47851,0.894561 1.04958,0.303533 2.6985,0.84173 3.27665,-0.08535 0.95996,-1.539328 0.0566,-3.629115 0.16895,-5.439762 0.14949,-2.408989 0.41088,-4.809726 0.61632,-7.21459 0.93179,-9.782786 2.42704,-19.496084 3.72882,-29.232902 0.15672,-2.247468 0.42509,-1.69827 -3.53404,-2.744419 -0.18018,-0.04761 -0.07,0.372398 -0.0459,0.557191 0.0914,0.70023 0.42833,1.045154 0.81046,1.650077 0.39039,0.523343 0.84685,1.003366 1.17117,1.570029 1.60507,2.804388 3.41916,6.876161 4.18051,9.899351 1.36604,5.424342 1.78672,11.333715 1.89411,16.893667 0.0495,2.560553 -0.12283,5.120589 -0.18424,7.680883 -0.15069,1.68312 -0.28723,3.367566 -0.45205,5.049361 -0.17624,1.798336 -1.3175,4.829384 3.57879,3.198799 0.99984,-0.332975 0.77778,-1.963525 1.2716,-2.894494 1.99549,-3.761959 3.33942,-5.476748 5.78818,-9.025495 5.42623,-6.355181 0.64822,-2.224381 5.93396,-4.402487 0.34676,-0.142888 -1.15528,-0.366279 -1.12511,0.0075 0.0938,1.162277 1.04717,2.09627 1.38503,3.212306 0.77173,2.549168 0.865,4.962445 1.10474,7.582638 0.0521,2.048621 0.1333,3.33412 0.0234,5.319154 -0.0381,0.688131 -0.15514,2.180468 -0.4799,2.894663 -0.45606,1.002954 -1.00445,1.298594 -1.82836,1.996494 -0.50564,0.25313 -0.98514,0.56715 -1.51691,0.75937 -1.69585,0.61302 -3.69446,0.85494 -5.44724,1.05739 -1.42336,0.1644 -2.85138,0.28726 -4.27942,0.40414 -1.84447,0.15096 -3.70467,0.14346 -5.53753,0.39932 -2.77627,0.38756 -5.51306,1.01873 -8.26958,1.5281 -3.42933,0.93254 -6.98224,1.49301 -10.28797,2.79762 -4.20461,1.65936 -8.25682,3.73024 -12.13531,6.05178 -8.793719,5.26363 -15.991687,11.04184 -22.577502,18.94637 -7.881234,9.45934 -8.631613,12.99291 -13.517534,23.83136 -0.08746,3.34924 -1.170455,6.82274 -0.262384,10.04771 2.3203,8.24043 10.539018,9.9001 17.975807,10.30605 4.268676,0.23301 8.712959,-0.32935 12.680263,-1.92195 10.18404,-4.08816 10.68909,-8.61352 15.38783,-17.37054 0.0969,-3.71835 0.75037,-7.46396 0.29063,-11.15505 -0.94284,-7.56984 -5.27793,-16.63151 -11.61009,-21.25077 -4.90056,-3.57491 -4.34899,-3.23451 -8.244491,-3.53078 -0.279815,0.29576 -0.758375,0.48828 -0.839446,0.88728 -0.265787,1.3081 1.384162,2.25542 2.181156,2.66114 1.996101,1.01614 4.007061,2.05017 6.144351,2.72021 0.5665,0.1776 8.65741,1.07454 9.09088,1.12417 2.48448,0.53605 5.95965,0.85072 7.89315,2.91394 0.39839,0.42512 -0.17221,1.16965 -0.0854,1.74576 0.29618,1.96595 1.03041,3.85836 1.22776,5.83667 0.44106,4.42138 -0.10593,8.28931 -0.50822,12.64999 -0.10524,1.27957 -0.39519,2.55729 -0.31572,3.83873 0.16973,2.73674 4.11981,2.82964 5.99312,2.58529 1.33071,-0.17358 2.24438,-1.47201 3.35671,-2.22278 5.10322,-3.44442 2.17869,-1.89134 7.40933,-4.18718 0.98968,0.0263 1.98739,-0.0497 2.96903,0.0789 0.36324,0.0476 -1.08669,-0.19851 -1.08612,0.16783 0.002,1.16183 0.86039,2.17156 1.09156,3.31016 0.64087,3.15651 0.35603,6.46832 0.38104,9.66439 0.84174,2.21182 0.59906,2.40439 4.77867,2.83856 0.29443,0.0306 2.93356,-2.39045 3.02839,-2.44748 1.46512,-0.88118 1.80259,-0.44921 3.37645,-0.0565 2.36834,0.88144 4.82592,1.76977 7.39677,1.11441 0.96107,-0.24499 1.95425,-0.57317 2.72251,-1.20044 2.1313,-1.74018 3.06813,-4.32899 4.22746,-6.68692 1.00165,-3.02886 3.32479,-7.99546 -3.26344,-7.31853 -0.93644,0.0962 -1.15748,1.49834 -1.58711,2.33595 -1.48737,2.89979 -1.26973,3.39209 -1.67125,6.56695 0.35937,2.46095 0.19491,3.6506 1.77701,5.68889 1.75929,2.2666 6.1359,4.36518 8.19937,5.18828 1.04628,0.41735 2.22218,0.37083 3.33327,0.55624 0,0 -2.72173,-2.05252 -2.72173,-2.05252 v 0 c -1.09595,-0.21203 -2.17715,-0.5246 -3.28784,-0.63609 -0.10101,-0.0101 0.0569,0.36135 -0.0264,0.3034 -3.08102,-2.14213 -3.83431,-3.78101 -4.25613,-7.46439 0.34986,-2.99772 0.1129,-3.68144 1.68691,-6.34968 0.43347,-0.73482 1.71863,-1.10663 1.64952,-1.95696 -0.0775,-0.95354 -1.0219,-2.037 -1.97762,-2.07996 -1.87766,-0.0844 5.12248,7.44441 -0.7079,5.59405 -1.24281,2.45292 -1.97915,4.65382 -4.27265,6.37728 -0.77072,0.57917 -1.741,0.87496 -2.68302,1.08001 -2.59336,0.56449 -5.06161,-0.44614 -7.4526,-1.26824 -0.6648,-0.10645 -1.3241,-0.38261 -1.99439,-0.31935 -1.34565,0.127 -2.11045,1.22672 -3.10204,1.93631 -0.47634,0.34088 -1.64474,0.33189 -1.50836,0.90153 0.14081,0.58811 3.74902,3.60931 1.53459,0.96761 -0.0622,-0.80422 -0.15305,-1.60674 -0.18655,-2.41267 -0.10192,-2.45187 0.0497,-4.97827 -0.33522,-7.4148 -0.18373,-1.16285 -0.12931,-2.5185 -0.88858,-3.4182 -3.56356,-4.2227 -4.00715,-3.60165 -7.8983,-3.41409 -6.54112,3.11796 -0.60604,0.0909 -7.41612,4.22851 -1.16321,0.70674 -2.88827,0.80283 -3.57083,1.98039 -0.44171,0.76205 1.07359,1.56483 1.00681,2.4431 -0.14105,1.85498 -4.81497,-10.46605 -1.08248,-5.47502 0.24442,-3.49987 0.75191,-9.3019 0.53945,-12.72087 -0.12253,-1.97166 0.0838,-4.14844 -0.9092,-5.85622 -1.39475,-2.39883 -5.99143,-5.89041 -9.04248,-6.95468 -1.37585,-0.47993 -2.85568,-0.58159 -4.28353,-0.87239 -1.5679,-0.18835 -3.14063,-0.3402 -4.70372,-0.56506 -1.52314,-0.21912 -3.01371,-0.74533 -4.55239,-0.76651 -0.23519,-0.003 0.16993,0.74868 -0.0608,0.70299 -0.44969,-0.089 -2.266047,-1.10128 -2.287005,-2.01461 -0.0066,-0.28684 0.341916,-0.46085 0.512873,-0.69128 3.832032,0.15182 3.863852,0.29534 7.383992,4.63156 3.95872,4.87649 6.84088,10.76474 7.70826,17.05299 0.50606,3.66873 -0.1195,7.40597 -0.17925,11.10895 -4.45355,8.48538 -5.16563,13.47198 -15.095339,17.35025 -2.801549,1.09421 -17.747467,2.91743 -21.91309,0.57915 -7.300463,-4.09795 -5.433166,-10.51208 -5.58732,-17.18076 4.713107,-10.95195 5.321911,-14.42842 13.218956,-23.94036 9.2456,-11.13626 21.664383,-19.64664 35.267413,-24.52668 3.41923,-1.22663 7.0619,-1.70667 10.59285,-2.56001 2.89172,-0.40214 5.77095,-0.90751 8.67516,-1.20641 1.89964,-0.19551 3.8159,-0.16549 5.72241,-0.2754 1.48089,-0.0854 2.96197,-0.17578 4.43919,-0.31038 1.87,-0.17039 3.93965,-0.35932 5.74369,-0.99994 0.56365,-0.20015 1.06714,-0.54061 1.6007,-0.81091 0.85309,-0.72913 1.51953,-1.1194 1.98058,-2.18487 0.31796,-0.734811 0.34908,-2.363176 0.35455,-3.054855 0.015,-1.892649 -0.11618,-3.548978 -0.22473,-5.457442 -0.23756,-2.434677 -0.42578,-5.272246 -1.02871,-7.650262 -0.28724,-1.13288 -0.366,-2.455493 -1.1675,-3.306088 -2.30179,-2.442795 -4.80146,-4.69319 -7.61018,-2.273393 -1.2377,1.066311 -2.05532,2.539945 -3.08297,3.809918 -1.64968,2.316514 -4.60091,6.408327 -6.19338,8.84106 -0.5565,0.850146 -1.79319,1.622639 -1.56874,2.613634 0.26879,1.186714 1.50143,2.336744 2.71369,2.441466 2.48909,0.215019 -7.1287,-11.315192 -0.19045,-7.492656 0.0246,-6.170088 0.16966,-10.268995 -0.36806,-16.509648 -0.23162,-2.688016 -0.49118,-5.385657 -1.04492,-8.026199 -0.41195,-1.964406 -2.39827,-7.510571 -3.46389,-9.683413 -0.26791,-0.546259 -0.69773,-0.996919 -1.0466,-1.49538 -0.11255,-0.167797 -0.74782,-1.032667 -0.8293,-1.379961 -0.0344,-0.146434 0.15108,-0.360193 0.0306,-0.450191 -1.06881,-0.798174 -2.27919,-1.386729 -3.41878,-2.080091 0.0507,0.07263 0.13621,0.130762 0.15198,0.217903 0.0592,0.327006 0.0449,0.663106 0.0674,0.994658 -0.28398,9.941365 -1.75362,19.79839 -2.87752,29.667033 -0.30241,2.356639 -0.59217,4.714934 -0.90724,7.069913 -0.23169,1.731788 -1.23361,3.51618 -0.733,5.190143 0.46799,1.564916 2.01779,2.632837 3.35361,3.572823 0.31306,0.220297 0.0533,-0.764032 0.0976,-1.14426 0.35228,-3.020634 0.80678,-6.028841 1.13744,-9.052134 0.39657,-3.424925 0.97063,-8.043838 1.22158,-11.508041 0.0929,-1.282885 0.81431,-2.755686 0.14801,-3.8559 -3.31614,-5.475676 -4.6306,-1.99027 -5.91058,0.512522 -1.11899,2.325698 -2.25151,4.6438 -3.28663,7.008608 -0.38089,0.870149 -1.3498,3.249626 -1.80852,4.116346 -0.36016,0.680492 -0.79658,1.317804 -1.19487,1.976704 -0.62321,0.652283 -1.15345,1.408242 -1.86962,1.956845 -1.98108,1.517555 -4.64116,2.498426 -6.97865,3.178138 -5.32353,1.548016 -10.86262,2.269482 -16.403162,2.034921 -1.206396,1.072309 -1.685276,1.965889 -2.508001,-1.919245 -0.605975,-2.861604 1.054322,-8.843894 1.690714,-11.111217 0.948447,-3.379091 4.183586,-12.865062 5.271053,-16.101911 2.223576,-6.319867 4.107826,-6.52027 -0.04667,-12.034168 -0.233484,-0.309883 -0.584398,0.527293 -0.785145,0.859321 -0.871101,1.440762 -1.615081,2.954666 -2.416162,4.435504 -5.910644,10.926109 -2.123943,4.181221 -9.051237,16.135379 -1.912787,2.916545 -3.69216,5.925087 -5.738355,8.749633 -1.715235,2.367691 -4.074927,4.271929 -5.531405,6.807013 -0.741733,1.291029 0.564644,4.076766 -0.893816,4.376462 -1.360672,0.279598 -1.401958,-2.496534 -1.51869,-3.880723 -0.240257,-2.848928 0.11887,-5.726782 0.46917,-8.564282 0.480126,-3.889134 1.345261,-7.720999 2.017893,-11.581498 0.824013,-3.744473 1.60905,-7.497738 2.472036,-11.233422 0.560319,-2.425502 2.07101,-4.774277 1.797516,-7.248586 -0.17059,-1.543322 -1.480164,-3.917767 -2.993247,-3.569168 -1.601021,0.368861 -1.097122,3.097403 -1.659501,4.641117 -3.185261,8.743421 -1.833187,5.266211 -5.673802,14.062601 -1.161958,1.997625 -2.137902,4.115742 -3.485878,5.992873 -0.900747,1.254342 -2.039456,2.333948 -3.21378,3.336788 -3.233171,2.761041 -6.86033,3.628268 -10.996207,3.484652 -4.203679,-0.317722 -8.387681,-0.798549 -12.588137,-1.156718 -3.200386,-0.272894 -7.029905,-0.601986 -10.268256,-0.588378 -1.18367,0.005 -2.363441,0.136165 -3.545164,0.204245 -0.655612,0.258204 -1.4542,0.291182 -1.966835,0.774607 -1.171353,1.104609 1.018759,2.553013 1.394819,2.862625 0.932141,0.767445 1.945088,1.431412 2.932521,2.126274 2.891351,2.034656 5.855943,3.964072 8.722206,6.034968 4.27691,3.087259 5.717323,4.032203 9.767705,7.320952 3.716962,3.018026 6.445356,6.204811 10.98333,8.134531 0.269455,0.11458 0.503164,-0.29961 0.754746,-0.44941 0.04377,-0.51668 0.140541,-1.03159 0.131296,-1.55003 -0.03419,-1.91705 -0.576286,-6.260797 -0.77484,-7.727522 C 56.91461,84.084741 55.278625,75.162877 53.435609,66.29038 52.584468,62.551304 51.854687,58.782515 50.882184,55.073152 49.356954,49.25555 48.158751,42.188574 42.016605,38.927246 c -1.053428,-0.559345 -2.246296,1.078867 -2.926797,2.058405 -1.459626,2.10104 -2.367602,4.545817 -3.312797,6.923103 -1.46694,3.689549 -2.60858,7.500266 -3.91287,11.250401 -2.375641,7.961527 -6.292083,20.995185 -8.544058,28.919773 -2.396914,8.434626 -4.984629,16.685482 -5.073781,25.521662 z" />
  </g>
</svg>
